<svg version="1.2" xmlns="http://www.w3.org/2000/svg" viewBox="0 0 763 185" width="300" height="73">
	<defs>
		<clipPath clipPathUnits="userSpaceOnUse" id="cp1">
			<path d="m383.35 96.97h111.65v77h-111.65z"/>
		</clipPath>
		<clipPath clipPathUnits="userSpaceOnUse" id="cp2">
			<path d="m383.35 96.97h112v77h-112z"/>
		</clipPath>
		<clipPath clipPathUnits="userSpaceOnUse" id="cp3">
			<path d="m256.08 96.97h120v77h-120z"/>
		</clipPath>
		<clipPath clipPathUnits="userSpaceOnUse" id="cp4">
			<path d="m132.05 96.97h117v77h-117z"/>
		</clipPath>
		<clipPath clipPathUnits="userSpaceOnUse" id="cp5">
			<path d="m502.36 97.18h119v76.79h-119z"/>
		</clipPath>
		<clipPath clipPathUnits="userSpaceOnUse" id="cp6">
			<path d="m508.46 97.18h106.8c3.37 0 6.1 2.75 6.1 6.14v64.51c0 3.39-2.73 6.14-6.1 6.14h-106.8c-3.37 0-6.1-2.75-6.1-6.14v-64.51c0-3.39 2.73-6.14 6.1-6.14z"/>
		</clipPath>
		<clipPath clipPathUnits="userSpaceOnUse" id="cp7">
			<path d="m13.68 96.97h110.65v77h-110.65z"/>
		</clipPath>
		<clipPath clipPathUnits="userSpaceOnUse" id="cp8">
			<path d="m13.68 96.97h111v77h-111z"/>
		</clipPath>
		<clipPath clipPathUnits="userSpaceOnUse" id="cp9">
			<path d="m628.86 96.97h119v77h-119z"/>
		</clipPath>
		<clipPath clipPathUnits="userSpaceOnUse" id="cp10">
			<path d="m628.86 97.18h119v76.79h-119z"/>
		</clipPath>
		<clipPath clipPathUnits="userSpaceOnUse" id="cp11">
			<path d="m634.96 97.18h106.8c3.36 0 6.1 2.75 6.1 6.14v64.51c0 3.39-2.74 6.14-6.1 6.14h-106.8c-3.37 0-6.1-2.75-6.1-6.14v-64.51c0-3.39 2.73-6.14 6.1-6.14z"/>
		</clipPath>
		<clipPath clipPathUnits="userSpaceOnUse" id="cp12">
			<path d="m655.99 98.09h64.69v74.95h-64.69z"/>
		</clipPath>
		<clipPath clipPathUnits="userSpaceOnUse" id="cp13">
			<path d="m507.04 12.67h111.96v76h-111.96z"/>
		</clipPath>
		<clipPath clipPathUnits="userSpaceOnUse" id="cp14">
			<path d="m507.04 12.41h112v77h-112z"/>
		</clipPath>
		<clipPath clipPathUnits="userSpaceOnUse" id="cp15">
			<path d="m626.03 12.67h111.64v76h-111.64z"/>
		</clipPath>
		<clipPath clipPathUnits="userSpaceOnUse" id="cp16">
			<path d="m626.03 12.41h112v77h-112z"/>
		</clipPath>
		<clipPath clipPathUnits="userSpaceOnUse" id="cp17">
			<path d="m24.14 12.58h111v77h-111z"/>
		</clipPath>
		<clipPath clipPathUnits="userSpaceOnUse" id="cp18">
			<path d="m142.63 12.58h120v77h-120z"/>
		</clipPath>
		<clipPath clipPathUnits="userSpaceOnUse" id="cp19">
			<path d="m388.5 12.67h110.5v76h-110.5z"/>
		</clipPath>
		<clipPath clipPathUnits="userSpaceOnUse" id="cp20">
			<path d="m388.5 12.58h111v77h-111z"/>
		</clipPath>
		<clipPath clipPathUnits="userSpaceOnUse" id="cp21">
			<path d="m437.67 42h18.66v18.67h-18.66z"/>
		</clipPath>
		<clipPath clipPathUnits="userSpaceOnUse" id="cp22">
			<path d="m453.87 55.97c2.52-3.94 1.37-9.17-2.57-11.68-3.94-2.52-9.16-1.37-11.68 2.56-2.52 3.94-1.37 9.17 2.57 11.69 3.93 2.51 9.16 1.37 11.68-2.57z"/>
		</clipPath>
		<linearGradient id="g1" x2="1" gradientUnits="userSpaceOnUse" gradientTransform="matrix(-22.441,-14.35,14.35,-22.441,462.523,51.46)">
			<stop offset="0" stop-color="#f6a000"/>
			<stop offset=".125" stop-color="#f6a000"/>
			<stop offset=".188" stop-color="#f6a000"/>
			<stop offset=".195" stop-color="#f69f00"/>
			<stop offset=".203" stop-color="#f59f00"/>
			<stop offset=".211" stop-color="#f59e00"/>
			<stop offset=".219" stop-color="#f59d00"/>
			<stop offset=".227" stop-color="#f49d00"/>
			<stop offset=".234" stop-color="#f49c00"/>
			<stop offset=".242" stop-color="#f39b00"/>
			<stop offset=".25" stop-color="#f39b00"/>
			<stop offset=".258" stop-color="#f39a00"/>
			<stop offset=".266" stop-color="#f29900"/>
			<stop offset=".273" stop-color="#f29900"/>
			<stop offset=".281" stop-color="#f29800"/>
			<stop offset=".289" stop-color="#f19701"/>
			<stop offset=".297" stop-color="#f19701"/>
			<stop offset=".305" stop-color="#f19601"/>
			<stop offset=".313" stop-color="#f09501"/>
			<stop offset=".32" stop-color="#f09501"/>
			<stop offset=".328" stop-color="#f09401"/>
			<stop offset=".336" stop-color="#ef9301"/>
			<stop offset=".344" stop-color="#ef9201"/>
			<stop offset=".352" stop-color="#ee9201"/>
			<stop offset=".359" stop-color="#ee9101"/>
			<stop offset=".367" stop-color="#ee9001"/>
			<stop offset=".375" stop-color="#ed9001"/>
			<stop offset=".383" stop-color="#ed8f01"/>
			<stop offset=".39" stop-color="#ed8e01"/>
			<stop offset=".398" stop-color="#ec8e01"/>
			<stop offset=".406" stop-color="#ec8d01"/>
			<stop offset=".414" stop-color="#ec8c01"/>
			<stop offset=".422" stop-color="#eb8c01"/>
			<stop offset=".43" stop-color="#eb8b01"/>
			<stop offset=".438" stop-color="#eb8a01"/>
			<stop offset=".445" stop-color="#ea8a01"/>
			<stop offset=".453" stop-color="#ea8901"/>
			<stop offset=".461" stop-color="#ea8801"/>
			<stop offset=".469" stop-color="#e98801"/>
			<stop offset=".477" stop-color="#e98701"/>
			<stop offset=".484" stop-color="#e88601"/>
			<stop offset=".492" stop-color="#e88602"/>
			<stop offset=".5" stop-color="#e88502"/>
			<stop offset=".508" stop-color="#e78402"/>
			<stop offset=".516" stop-color="#e78402"/>
			<stop offset=".523" stop-color="#e78302"/>
			<stop offset=".531" stop-color="#e68202"/>
			<stop offset=".539" stop-color="#e68202"/>
			<stop offset=".547" stop-color="#e68102"/>
			<stop offset=".555" stop-color="#e58002"/>
			<stop offset=".563" stop-color="#e58002"/>
			<stop offset=".57" stop-color="#e57f02"/>
			<stop offset=".578" stop-color="#e47e02"/>
			<stop offset=".586" stop-color="#e47e02"/>
			<stop offset=".594" stop-color="#e37d02"/>
			<stop offset=".602" stop-color="#e37c02"/>
			<stop offset=".609" stop-color="#e27b02"/>
			<stop offset=".617" stop-color="#e17902"/>
			<stop offset=".625" stop-color="#e17902"/>
			<stop offset=".633" stop-color="#e07802"/>
			<stop offset=".641" stop-color="#e07702"/>
			<stop offset=".648" stop-color="#df7602"/>
			<stop offset=".656" stop-color="#df7502"/>
			<stop offset=".664" stop-color="#de7402"/>
			<stop offset=".672" stop-color="#de7302"/>
			<stop offset=".68" stop-color="#dd7202"/>
			<stop offset=".688" stop-color="#dd7102"/>
			<stop offset=".695" stop-color="#dc7002"/>
			<stop offset=".703" stop-color="#db6f02"/>
			<stop offset=".711" stop-color="#db6e02"/>
			<stop offset=".719" stop-color="#da6d02"/>
			<stop offset=".727" stop-color="#da6c02"/>
			<stop offset=".734" stop-color="#d96b02"/>
			<stop offset=".742" stop-color="#d96a02"/>
			<stop offset=".75" stop-color="#d86902"/>
			<stop offset=".758" stop-color="#d86802"/>
			<stop offset=".766" stop-color="#d76702"/>
			<stop offset=".773" stop-color="#d66602"/>
			<stop offset=".781" stop-color="#d66502"/>
			<stop offset=".789" stop-color="#d56402"/>
			<stop offset=".797" stop-color="#d56302"/>
			<stop offset=".805" stop-color="#d46202"/>
			<stop offset=".813" stop-color="#d46102"/>
			<stop offset=".875" stop-color="#d36002"/>
			<stop offset="1" stop-color="#d36002"/>
		</linearGradient>
		<clipPath clipPathUnits="userSpaceOnUse" id="cp23">
			<path d="m269.67 12.67h111.89v76.74h-111.89z"/>
		</clipPath>
		<clipPath clipPathUnits="userSpaceOnUse" id="cp24">
			<path d="m269.56 12.41h112v77h-112z"/>
		</clipPath>
	</defs>
	<style>
		.s0 { fill: #ffffff } 
		.s1 { fill: none;stroke: #d9d9d9;stroke-width: 1.6 } 
		.s2 { fill: #3c4043 } 
		.s3 { fill: #4285f4 } 
		.s4 { fill: #34a853 } 
		.s5 { fill: #fbbc04 } 
		.s6 { fill: #ea4335 } 
		.s7 { fill: #000000 } 
		.s8 { fill: #00bcff } 
		.s9 { fill: #0a0080 } 
		.s10 { fill: #333333 } 
		.s11 { fill: none;stroke: #f3f3f3;stroke-width: 1.9 } 
		.s12 { fill: #ffdd00 } 
		.s13 { fill: #6f0375 } 
		.s14 { fill: #00d0b4 } 
		.s15 { fill: #006fcf } 
		.s16 { fill: #1a1919 } 
		.s17 { fill: #fffffe } 
		.s18 { fill: #0069aa } 
		.s19 { fill: #28356a } 
		.s20 { fill: #298fc2 } 
		.s21 { fill: #22284f } 
		.s22 { fill: #0e4595 } 
		.s23 { fill: #f2ae14 } 
		.s24 { fill: #1d1d1b } 
		.s25 { fill: url(#g1) } 
		.s26 { fill: #231f20 } 
		.s27 { fill: #ff5f00 } 
		.s28 { fill: #eb001b } 
		.s29 { fill: #f79e1b } 
	</style>
	<g id="Clip-Path" clip-path="url(#cp1)">
		<g>
			<path fill-rule="evenodd" class="s0" d="m392.96 97.78h92.8c4.8 0 8.8 4.01 8.8 8.82v57.75c0 4.81-4 8.82-8.8 8.82h-92.8c-4.8 0-8.8-4.01-8.8-8.82v-57.75c0-4.81 4-8.82 8.8-8.82z"/>
		</g>
	</g>
	<g id="Clip-Path" clip-path="url(#cp2)">
		<g>
			<path class="s1" d="m392.96 97.78h92.8c4.8 0 8.8 4.01 8.8 8.82v57.75c0 4.81-4 8.82-8.8 8.82h-92.8c-4.8 0-8.8-4.01-8.8-8.82v-57.75c0-4.81 4-8.82 8.8-8.82z"/>
		</g>
	</g>
	<path fill-rule="evenodd" class="s2" d="m433.28 147.51v-23.91h8c1.92 0 3.83 0.64 5.12 2.09 2.71 2.57 2.88 6.9 0.32 9.78l-0.32 0.33q-2.08 2.08-5.12 2.08h-4.96v9.63zm8-12.68c1.12 0.16 2.24-0.32 3.04-1.12 1.6-1.76 1.44-4.33-0.16-5.93-0.8-0.81-1.76-1.29-2.88-1.29h-5.12v8.34zm21.6 2.57v10.11h-2.88v-2.25h-0.16q-1.92 2.73-4.96 2.72-2.72 0.01-4.48-1.44c-1.28-1.12-1.92-2.57-1.76-4.01q0-2.56 1.76-4.17 1.92-1.44 5.12-1.44 2.72 0 4.48 0.96v-0.64c0-1.13-0.48-2.09-1.28-2.73-0.8-0.8-1.92-1.12-2.88-1.12q-2.56 0-4 2.08l-2.72-1.6q2.24-3.21 6.4-3.21 3.36 0 5.44 1.77 1.92 1.76 1.92 4.97zm-7.84 7.86c1.28 0 2.56-0.48 3.36-1.44q1.6-1.29 1.6-3.37-1.44-1.13-4-1.13-1.92 0-3.04 0.97-1.28 0.8-1.28 2.24c0 0.8 0.32 1.61 0.96 1.93 0.8 0.64 1.6 0.8 2.4 0.8zm11.2 9.46l3.68-8.18-6.56-15.39h3.2l4.8 11.7h0.16l4.64-11.7h3.2l-10.08 23.57z"/>
	<path class="s3" d="m425.76 135.8q0-1.45-0.16-2.89h-12.8v5.29h7.36c-0.32 1.76-1.28 3.21-2.72 4.17v3.53h4.32c2.56-2.41 4-5.94 4-10.1z"/>
	<path class="s4" d="m412.8 149.11c3.67 0 6.72-1.13 8.96-3.21l-4.32-3.53c-1.12 0.96-2.72 1.29-4.64 1.29-3.52 0-6.4-2.41-7.52-5.62h-4.48v3.53c2.24 4.65 7.04 7.54 12 7.54z"/>
	<path class="s5" d="m405.28 138.04c-0.48-1.6-0.48-3.53 0-5.29v-3.53h-4.48c-1.92 3.85-1.92 8.5 0 12.35z"/>
	<path class="s6" d="m412.8 127.14c2.07 0 3.84 0.64 5.28 2.08l3.84-4.01c-2.4-2.25-5.76-3.53-9.12-3.53-4.96 0-9.76 2.89-12 7.54l4.48 3.53c1.12-3.21 4-5.61 7.52-5.61z"/>
	<g id="Clip-Path" clip-path="url(#cp3)">
		<g>
			<path class="s7" d="m365.02 96.98h-100.48c-0.73 0-1.52 0.07-2.24 0.21-0.73 0.15-1.45 0.37-2.17 0.73-0.65 0.29-1.3 0.8-1.81 1.31-0.51 0.51-1.01 1.16-1.3 1.82-0.36 0.65-0.58 1.38-0.72 2.17-0.15 0.73-0.15 1.53-0.22 2.25v59.93c0 0.72 0.07 1.53 0.22 2.25 0.14 0.73 0.36 1.45 0.72 2.18 0.36 0.65 0.79 1.31 1.3 1.82 0.51 0.51 1.16 1.02 1.81 1.3 0.65 0.37 1.37 0.59 2.17 0.73 0.72 0.15 1.51 0.15 2.24 0.22h102.72c0.72 0 1.52-0.07 2.24-0.22 0.72-0.14 1.45-0.36 2.17-0.73 0.65-0.36 1.3-0.79 1.81-1.3 0.5-0.51 1.01-1.17 1.3-1.82 0.36-0.65 0.57-1.38 0.72-2.18 0.15-0.72 0.15-1.53 0.22-2.25v-59.93c0-0.72-0.07-1.52-0.22-2.25-0.15-0.73-0.36-1.45-0.72-2.17-0.36-0.66-0.8-1.31-1.3-1.82-0.51-0.51-1.16-1.02-1.81-1.31-0.65-0.36-1.37-0.58-2.17-0.73-0.72-0.14-1.52-0.14-2.24-0.21z"/>
		</g>
	</g>
	<path class="s0" d="m365.02 99.52h2.24c0.58 0 1.23 0.07 1.88 0.15 0.58 0.07 1.01 0.21 1.44 0.43 0.44 0.22 0.8 0.51 1.16 0.87 0.36 0.36 0.65 0.73 0.87 1.17 0.22 0.43 0.36 0.87 0.43 1.45 0.15 0.65 0.15 1.31 0.15 1.88v59.93c0 0.58-0.08 1.24-0.15 1.89-0.07 0.51-0.21 1.02-0.43 1.45-0.22 0.44-0.51 0.8-0.87 1.17-0.36 0.36-0.72 0.65-1.16 0.87-0.43 0.21-0.86 0.36-1.44 0.43-0.65 0.15-1.3 0.15-1.88 0.15h-102.72c-0.51 0-1.23-0.07-1.88-0.15-0.51-0.07-1.01-0.22-1.45-0.51-0.43-0.22-0.79-0.51-1.15-0.87-0.37-0.36-0.65-0.73-0.87-1.16-0.22-0.44-0.36-0.87-0.43-1.45-0.15-0.66-0.15-1.31-0.15-1.89v-59.86c0-0.57 0.07-1.23 0.15-1.88 0.07-0.51 0.21-1.02 0.43-1.45 0.22-0.44 0.5-0.81 0.87-1.17 0.36-0.36 0.72-0.65 1.15-0.87 0.44-0.22 0.87-0.36 1.45-0.43 0.65-0.15 1.3-0.15 1.88-0.15z"/>
	<path class="s7" d="m288.76 122.83c1.01-1.3 1.73-3.04 1.51-4.79-1.51 0.07-3.32 1.02-4.41 2.25-0.94 1.1-1.8 2.91-1.59 4.58 1.74 0.22 3.4-0.73 4.49-2.04zm1.51 2.48c-2.46-0.15-4.55 1.38-5.71 1.38-1.15 0-2.96-1.31-4.91-1.31-2.54 0.07-4.85 1.45-6.15 3.78-2.6 4.57-0.72 11.32 1.88 15.03 1.23 1.82 2.75 3.85 4.7 3.78 1.88-0.07 2.6-1.24 4.84-1.24 2.24 0 2.89 1.24 4.92 1.17 2.02-0.08 3.32-1.82 4.55-3.71 1.45-2.11 2.03-4.14 2.03-4.21-0.08-0.07-3.98-1.53-3.98-6.03-0.07-3.78 3.04-5.6 3.18-5.67-1.66-2.61-4.41-2.9-5.35-2.97z"/>
	<path class="s7" d="m311.53 120.15c5.35 0 9.03 3.7 9.03 9.01 0 5.37-3.76 9.07-9.18 9.07h-5.85v9.37h-4.27v-27.45zm-6 14.53h4.84c3.69 0 5.79-2.04 5.79-5.45 0-3.49-2.1-5.45-5.79-5.45h-4.91v10.9zm16.12 7.33c0-3.48 2.67-5.67 7.45-5.95l5.48-0.29v-1.53c0-2.25-1.51-3.56-3.97-3.56-2.38 0-3.83 1.16-4.19 2.9h-3.9c0.21-3.63 3.32-6.31 8.24-6.31 4.84 0 7.95 2.54 7.95 6.6v13.81h-3.91v-3.27h-0.07c-1.16 2.25-3.69 3.63-6.29 3.63-4.05 0-6.79-2.47-6.79-6.03zm12.93-1.81v-1.6l-4.91 0.29c-2.45 0.14-3.83 1.23-3.83 2.97 0 1.75 1.45 2.91 3.61 2.91 2.9 0 5.13-1.96 5.13-4.57zm7.74 14.89v-3.35c0.29 0.08 1.01 0.08 1.3 0.08 1.88 0 2.9-0.8 3.54-2.84 0-0.07 0.37-1.23 0.37-1.23l-7.23-20.05h4.41l5.06 16.35h0.07l5.06-16.35h4.34l-7.45 21.14c-1.73 4.87-3.68 6.39-7.8 6.39-0.3-0.07-1.31-0.07-1.67-0.14z"/>
	<path class="s7" d="m191.69 111.98h-1.21v1.72h1.21q0.44 0 0.69-0.25 0.27-0.23 0.27-0.62 0-0.37-0.27-0.62-0.25-0.22-0.69-0.23z"/>
	<path class="s7" d="m164.22 115.56q0.04-0.11 0.07-0.32 0.02-0.21 0.04-0.48 0-0.28 0-0.67 0-0.36 0-0.66-0.02-0.28-0.04-0.46-0.03-0.2-0.09-0.35-0.05-0.13-0.14-0.25-0.32-0.39-0.98-0.39h-0.99v4.24h0.99q0.66 0.01 0.98-0.41 0.09-0.11 0.14-0.25z"/>
	<path class="s7" d="m152.2 113.45q0.28-0.23 0.27-0.62 0.01-0.37-0.27-0.62-0.25-0.22-0.68-0.23h-1.24v1.72h1.24q0.43 0 0.68-0.25z"/>
	<path fill-rule="evenodd" class="s7" d="m184.58 115.12h1.64l-0.79-2.35z"/>
	<g id="Clip-Path" clip-path="url(#cp4)">
		<g>
			<path class="s7" d="m238.69 96.97h-96.29c-5.72 0-10.35 4.65-10.35 10.38v56.24c0 5.73 4.63 10.38 10.35 10.38h96.29c5.72 0 10.36-4.65 10.36-10.38v-56.24c0-5.73-4.64-10.38-10.36-10.38zm-7.08 11.53c2.81 0 5.09 2.29 5.09 5.14 0 2.81-2.28 5.1-5.09 5.1-2.83 0-5.12-2.29-5.12-5.1 0-2.85 2.29-5.14 5.12-5.14zm-13.67 0c2.82 0 5.1 2.29 5.1 5.14 0 2.81-2.28 5.1-5.1 5.1-2.83 0-5.11-2.29-5.11-5.1 0-2.85 2.28-5.14 5.11-5.14zm-22.64 2.34h2.4q0.69 0 1.19 0.23 0.48 0.22 0.84 0.73 0.14 0.21 0.23 0.43 0.09 0.24 0.14 0.51c0 0.21 0.02 0.39 0.04 0.62q0 0.34 0 0.73 0 0.42 0 0.74-0.04 0.34-0.04 0.61-0.05 0.28-0.14 0.51-0.09 0.23-0.23 0.46-0.36 0.48-0.84 0.71-0.5 0.23-1.19 0.23h-2.4zm-18.14 2.41q0.02-0.37 0.06-0.69 0.07-0.32 0.21-0.58 0.14-0.27 0.39-0.5 0.34-0.34 0.77-0.51 0.44-0.18 1.01-0.18 0.94 0 1.6 0.51 0.68 0.52 0.85 1.53h-1.33q-0.09-0.39-0.37-0.64-0.27-0.28-0.75-0.27-0.28 0-0.48 0.09-0.2 0.09-0.34 0.25-0.1 0.09-0.17 0.23-0.06 0.12-0.08 0.32-0.05 0.21-0.07 0.5-0.03 0.32-0.03 0.78 0 0.46 0.03 0.78 0.02 0.3 0.07 0.51 0.02 0.21 0.08 0.32 0.07 0.13 0.17 0.23 0.14 0.16 0.34 0.25 0.2 0.09 0.48 0.09 0.5 0 0.75-0.27 0.28-0.25 0.37-0.65h1.33q-0.19 1.01-0.85 1.54-0.66 0.5-1.6 0.5-0.57 0.01-1.01-0.16-0.43-0.18-0.77-0.53-0.25-0.25-0.39-0.5-0.14-0.28-0.21-0.57-0.04-0.32-0.06-0.69-0.03-0.39-0.03-0.85 0-0.46 0.03-0.84zm-7.82-2.41h4.77v1.14h-1.73v5.37h-1.3v-5.37h-1.74zm-2.38 0h1.31v6.49h-1.31zm-6.17 0h2.4q0.68 0.01 1.19 0.23 0.48 0.22 0.84 0.73 0.15 0.21 0.23 0.44 0.1 0.23 0.14 0.5 0.02 0.3 0.05 0.62 0 0.34 0 0.73 0 0.42 0 0.74-0.03 0.34-0.05 0.61-0.04 0.28-0.14 0.51-0.08 0.23-0.23 0.46-0.36 0.48-0.84 0.71-0.51 0.23-1.19 0.23h-2.4zm-5.66 0h4.38v1.15h-3.08v1.51h2.63v1.14h-2.63v1.56h3.08v1.15h-4.38zm-6.15 0h2.62q0.51 0 0.9 0.16 0.41 0.16 0.68 0.43 0.3 0.26 0.43 0.62 0.17 0.37 0.17 0.78 0 0.35-0.12 0.62-0.09 0.28-0.25 0.48-0.18 0.23-0.41 0.37-0.21 0.16-0.46 0.23l1.49 2.82h-1.51l-1.3-2.61h-0.94v2.61h-1.3zm-3.16 31.44v-5.02h7.61v5.02zm7.59 1.61v5.4h-4.18c-1.88 0-3.41-1.51-3.41-3.39v-2.01zm-7.61-8.23v-5h7.61v5zm0-6.6v-2.02c0-1.88 1.51-3.41 3.41-3.41h4.18v5.43zm-2.88-14.96q0-0.46 0.03-0.85 0-0.37 0.06-0.69 0.07-0.32 0.19-0.57 0.13-0.28 0.41-0.53 0.34-0.32 0.77-0.5 0.42-0.16 1.01-0.17 0.94 0.01 1.6 0.51 0.66 0.53 0.84 1.54h-1.32q-0.12-0.4-0.37-0.67-0.27-0.25-0.75-0.25-0.28 0-0.48 0.09-0.23 0.09-0.36 0.25-0.1 0.09-0.14 0.23-0.07 0.12-0.12 0.32-0.02 0.21-0.04 0.5-0.03 0.32-0.03 0.79 0 0.46 0.03 0.75 0.02 0.32 0.04 0.53 0.05 0.17 0.12 0.32 0.04 0.11 0.14 0.23 0.13 0.16 0.36 0.25 0.2 0.09 0.48 0.09 0.48 0 0.75-0.27 0.28-0.25 0.37-0.67h1.32q-0.18 1.03-0.84 1.54-0.66 0.53-1.6 0.52-0.59 0-1.01-0.18-0.45-0.18-0.77-0.5-0.28-0.25-0.41-0.5-0.12-0.28-0.19-0.58-0.07-0.32-0.09-0.71 0-0.37 0-0.82zm18.35 47.64h-18.28v-3.67h18.28zm0.94-32.68v20.24h-7.2v-25.67h13c1.87 0 3.38 1.54 3.38 3.42v2.01zm1.6 6.6v-4.99h7.61v4.99zm7.59 1.61v5.02h-7.59v-5.02zm-7.61 12.03v-5.41h7.61v2.02c0 1.88-1.53 3.39-3.4 3.39zm23.05 12.44h-18.28v-3.67h18.28zm0.09-44.38l-0.38-1.17h-2.38l-0.41 1.17h-1.35l2.42-6.51h1.03l2.45 6.51zm4.41-2.62h-0.94v2.62h-1.3v-6.51h2.63q0.5 0 0.91 0.16 0.39 0.16 0.69 0.43 0.27 0.26 0.41 0.62 0.16 0.37 0.16 0.78 0 0.34-0.11 0.62-0.1 0.28-0.26 0.48-0.18 0.23-0.38 0.37-0.23 0.16-0.48 0.22l1.48 2.83h-1.51zm21.09 46.98h-18.28v-3.67h18.28zm25.6 0h-18.28v-3.67h18.28zm0-11h-36.56v-3.66h36.56z"/>
		</g>
	</g>
	<path class="s7" d="m198.72 115.56q0.04-0.11 0.08-0.32 0.02-0.21 0.02-0.48 0.02-0.28 0.02-0.67 0-0.36-0.02-0.66 0-0.28-0.02-0.46-0.03-0.2-0.1-0.35-0.05-0.13-0.13-0.25-0.32-0.39-0.99-0.39h-0.98v4.24h0.98q0.67 0.01 0.99-0.41 0.08-0.11 0.13-0.25z"/>
	<g id="Clip-Path" clip-path="url(#cp5)">
		<g>
			<g id="Clip-Path" clip-path="url(#cp6)">
				<g>
					<path class="s8" d="m502.36 97.18h118.9v76.79h-118.9z"/>
				</g>
			</g>
		</g>
	</g>
	<path class="s8" d="m561.86 104.72c-11.29 0-20.44 5.89-20.44 13.19 0 7.26 9.15 13.74 20.44 13.74 11.29 0 20.47-6.48 20.47-13.74 0-7.27-9.18-13.19-20.47-13.19z"/>
	<path class="s0" d="m555.21 113.83c-0.02 0.02-0.22 0.23-0.08 0.39 0.31 0.41 1.28 0.63 2.28 0.43 0.59-0.14 1.34-0.74 2.07-1.33 0.8-0.64 1.57-1.27 2.36-1.52 0.84-0.26 1.38-0.14 1.73-0.04 0.39 0.13 0.86 0.37 1.57 0.92 1.38 1.05 6.9 5.88 7.85 6.72 0.75-0.35 4.42-1.84 9.05-2.87-0.4-2.47-1.89-4.85-4.17-6.71-3.17 1.35-7.32 2.15-11.1 0.28-0.03-0.02-2.08-0.98-4.11-0.94-3.01 0.06-4.32 1.39-5.7 2.77z"/>
	<path class="s0" d="m572.77 119.93c-0.08-0.06-6.49-5.71-7.96-6.82-0.83-0.63-1.3-0.8-1.79-0.85-0.26-0.05-0.61 0.01-0.85 0.07-0.69 0.19-1.57 0.78-2.36 1.42-0.82 0.65-1.57 1.27-2.28 1.43-0.92 0.21-2.04-0.04-2.52-0.39-0.2-0.14-0.37-0.31-0.43-0.47-0.18-0.43 0.16-0.78 0.23-0.84l1.76-1.92q0.31-0.31 0.61-0.62c-0.57 0.07-1.09 0.23-1.6 0.37-0.65 0.16-1.26 0.35-1.89 0.35-0.25 0-1.65-0.23-1.91-0.31-1.61-0.43-3.43-0.88-5.54-1.86-2.5 1.88-4.15 4.22-4.64 6.8 0.37 0.1 1.31 0.32 1.55 0.37 5.71 1.29 7.49 2.6 7.81 2.86 0.35-0.38 0.85-0.63 1.4-0.63 0.63 0 1.2 0.32 1.55 0.82 0.32-0.27 0.77-0.5 1.36-0.5q0.39 0.03 0.82 0.15c0.65 0.22 0.97 0.66 1.13 1.04 0.23-0.08 0.49-0.16 0.8-0.16q0.47 0 0.95 0.2c1.06 0.48 1.22 1.5 1.12 2.3q0.1-0.02 0.23-0.02c1.24 0 2.25 1.02 2.25 2.27q-0.01 0.59-0.26 1.08c0.35 0.19 1.2 0.62 1.96 0.52 0.61-0.06 0.83-0.29 0.91-0.39 0.06-0.09 0.12-0.18 0.06-0.25l-1.6-1.8c0 0-0.27-0.24-0.17-0.35 0.08-0.1 0.24 0.04 0.37 0.15 0.81 0.67 1.81 1.72 1.81 1.72 0.02 0.02 0.08 0.14 0.44 0.2 0.33 0.06 0.9 0.04 1.29-0.29q0.15-0.12 0.28-0.28-0.02 0-0.02 0c0.41-0.51-0.06-1.07-0.06-1.07l-1.87-2.11c0 0-0.27-0.25-0.16-0.34 0.05-0.11 0.24 0.04 0.36 0.14 0.59 0.49 1.42 1.35 2.24 2.13 0.16 0.12 0.86 0.55 1.79-0.07 0.57-0.36 0.69-0.83 0.67-1.18-0.04-0.45-0.39-0.78-0.39-0.78l-2.56-2.6c0 0-0.28-0.23-0.18-0.35 0.08-0.1 0.24 0.04 0.36 0.14 0.82 0.68 3.04 2.73 3.04 2.73 0.04 0.02 0.79 0.57 1.75-0.04 0.32-0.21 0.54-0.54 0.56-0.93 0.02-0.65-0.42-1.04-0.42-1.04z"/>
	<path class="s0" d="m560.32 123.21c-0.39 0-0.84 0.24-0.9 0.2-0.02-0.02 0.04-0.18 0.06-0.26 0.05-0.1 0.57-1.68-0.71-2.23-0.97-0.44-1.57 0.04-1.77 0.26q-0.08 0.08-0.08-0.02c-0.02-0.29-0.16-1.07-1-1.31-1.2-0.37-1.97 0.47-2.18 0.78-0.07-0.7-0.66-1.23-1.38-1.23-0.77 0-1.4 0.64-1.4 1.41 0 0.78 0.63 1.39 1.4 1.39q0.59-0.01 0.98-0.38 0 0.01 0 0.04c-0.06 0.36-0.16 1.61 1.16 2.12 0.53 0.21 0.97 0.07 1.34-0.2 0.1-0.08 0.12-0.04 0.1 0.06-0.04 0.33 0.02 1.02 1 1.42 0.73 0.3 1.18 0 1.47-0.27 0.12-0.13 0.14-0.1 0.16 0.08 0.02 0.95 0.81 1.68 1.75 1.7 0.97 0 1.77-0.8 1.77-1.78 0-0.98-0.8-1.76-1.77-1.76z"/>
	<path class="s9" d="m561.86 104.18c-11.51 0-20.85 6.17-20.85 13.73 0 0.2 0 0.73 0 0.79 0 8.03 8.16 14.52 20.85 14.52 12.68 0 20.83-6.49 20.83-14.52v-0.79c0-7.56-9.32-13.73-20.83-13.73zm19.9 12.21c-4.52 1-7.92 2.47-8.75 2.87-1.97-1.74-6.55-5.74-7.79-6.68-0.71-0.53-1.18-0.82-1.61-0.94-0.2-0.06-0.44-0.12-0.79-0.12q-0.47 0-1.02 0.16c-0.79 0.27-1.59 0.9-2.36 1.51l-0.04 0.02c-0.71 0.58-1.46 1.17-2.01 1.32q-0.37 0.08-0.75 0.08c-0.63 0-1.2-0.19-1.41-0.47q-0.06-0.07 0.06-0.21l0.02-0.02 1.73-1.88c1.37-1.37 2.67-2.69 5.62-2.75q0.08 0 0.14 0c1.85 0 3.7 0.84 3.9 0.92 1.73 0.87 3.52 1.29 5.32 1.29q2.76 0 5.81-1.39c2.1 1.79 3.5 3.94 3.93 6.29zm-19.9-11.41c6.1 0 11.58 1.79 15.26 4.55q-2.68 1.17-5.1 1.17-2.52-0.01-4.97-1.21c-0.08-0.04-2.11-1.01-4.25-1.01q-0.08 0-0.16 0c-2.48 0.07-3.89 0.95-4.82 1.72-0.92 0.04-1.72 0.25-2.42 0.46-0.63 0.18-1.17 0.32-1.69 0.32-0.23 0-0.62-0.02-0.65-0.02-0.62-0.02-3.66-0.78-6.09-1.69 3.67-2.63 8.97-4.29 14.89-4.29zm-15.62 4.84c2.54 1.04 5.63 1.84 6.61 1.92 0.26 0 0.55 0.04 0.86 0.04 0.63 0 1.28-0.18 1.91-0.35q0.55-0.18 1.2-0.31-0.17 0.17-0.35 0.35l-1.77 1.93c-0.14 0.14-0.42 0.51-0.24 0.98q0.13 0.29 0.47 0.52c0.42 0.28 1.17 0.46 1.87 0.46q0.4 0 0.75-0.06c0.75-0.18 1.53-0.79 2.34-1.45 0.67-0.53 1.59-1.19 2.3-1.39 0.2-0.06 0.45-0.09 0.65-0.09q0.08 0 0.16 0c0.47 0.07 0.94 0.23 1.75 0.84 1.45 1.11 7.87 6.76 7.94 6.81 0 0.02 0.4 0.36 0.38 0.95q-0.03 0.51-0.53 0.83-0.4 0.26-0.83 0.26c-0.43 0-0.74-0.2-0.75-0.22-0.02 0-2.22-2.05-3.03-2.73-0.13-0.1-0.25-0.2-0.37-0.2q-0.12 0-0.19 0.08c-0.11 0.17 0.03 0.37 0.19 0.51l2.58 2.6c0 0 0.31 0.31 0.35 0.72q0.02 0.64-0.61 1.07-0.45 0.3-0.92 0.3c-0.38 0-0.67-0.18-0.73-0.23l-0.37-0.36c-0.67-0.68-1.36-1.36-1.87-1.78-0.12-0.11-0.26-0.21-0.39-0.21q-0.1 0-0.16 0.06c-0.06 0.09-0.1 0.19 0.04 0.39 0.07 0.09 0.14 0.14 0.14 0.14l1.88 2.11c0 0.02 0.39 0.48 0.04 0.92l-0.06 0.09q-0.1 0.08-0.18 0.16c-0.33 0.27-0.76 0.29-0.92 0.29q-0.14 0-0.27-0.02-0.26-0.05-0.36-0.15l-0.02-0.04c-0.11-0.1-1.04-1.06-1.83-1.72-0.1-0.1-0.23-0.2-0.37-0.2q-0.1 0-0.16 0.08c-0.16 0.17 0.08 0.43 0.18 0.51l1.59 1.79q0 0.01-0.06 0.09c-0.06 0.09-0.25 0.29-0.84 0.35q-0.1 0.03-0.2 0.02c-0.59 0-1.24-0.28-1.57-0.46q0.22-0.5 0.23-1.03c0-1.33-1.06-2.4-2.38-2.4q-0.04 0-0.09 0c0.05-0.61-0.04-1.76-1.21-2.25q-0.51-0.22-1-0.23-0.39 0-0.73 0.13-0.37-0.72-1.17-0.98-0.44-0.17-0.85-0.17-0.73 0-1.34 0.43c-0.39-0.47-0.96-0.75-1.57-0.75-0.53 0-1.03 0.2-1.42 0.59-0.49-0.39-2.46-1.64-7.75-2.85-0.26-0.06-0.84-0.22-1.2-0.33 0.51-2.39 2.02-4.58 4.25-6.36zm15.62 20.99c-11.08 0-20.05-5.78-20.05-12.9q0.01-0.43 0.06-0.86c0.08 0.02 0.95 0.24 1.14 0.28 5.41 1.21 7.18 2.46 7.48 2.69q-0.15 0.39-0.14 0.79c0 1.13 0.89 2.03 2.01 2.03q0.19 0 0.37-0.04c0.16 0.84 0.71 1.46 1.53 1.78q0.36 0.15 0.73 0.14 0.22 0 0.45-0.06c0.16 0.39 0.48 0.88 1.26 1.19q0.41 0.16 0.79 0.17 0.33-0.01 0.61-0.11c0.37 0.88 1.24 1.48 2.22 1.48 0.63 0 1.26-0.25 1.71-0.72 0.38 0.2 1.19 0.59 2.01 0.59q0.16 0 0.3 0c0.82-0.12 1.21-0.43 1.37-0.67q0.06-0.09 0.1-0.15c0.18 0.04 0.39 0.11 0.63 0.11q0.66-0.01 1.3-0.48c0.43-0.3 0.73-0.75 0.78-1.12q0-0.02 0-0.02 0.22 0.04 0.44 0.04 0.69 0 1.35-0.43c0.83-0.56 0.97-1.27 0.95-1.72q0.22 0.04 0.45 0.04 0.64-0.01 1.26-0.39c0.51-0.32 0.81-0.84 0.87-1.43q0.03-0.62-0.28-1.15c1.38-0.61 4.58-1.78 8.32-2.62q0.02 0.31 0.02 0.64c0 7.12-8.97 12.9-20.04 12.9zm-5.81-7.13l-0.07-0.06h-0.06q-0.06 0-0.16 0.06-0.4 0.3-0.79 0.28-0.21 0-0.43-0.07c-1.24-0.5-1.14-1.65-1.08-1.99q0.02-0.12-0.06-0.17l-0.08-0.08-0.08 0.08q-0.38 0.35-0.88 0.35c-0.69 0-1.28-0.57-1.28-1.27 0-0.72 0.59-1.29 1.28-1.29 0.63 0 1.18 0.5 1.26 1.13l0.05 0.34 0.18-0.3c0.02-0.02 0.52-0.8 1.48-0.8q0.27 0 0.56 0.08c0.75 0.23 0.87 0.93 0.89 1.21 0.02 0.16 0.14 0.16 0.16 0.16 0.06 0 0.1-0.04 0.14-0.06 0.14-0.16 0.45-0.41 0.94-0.41q0.34 0 0.71 0.17c1.18 0.51 0.65 2.04 0.63 2.06-0.1 0.25-0.1 0.37 0 0.44l0.04 0.02h0.04q0.08 0 0.23-0.07c0.16-0.06 0.4-0.14 0.65-0.14 0.89 0 1.62 0.76 1.62 1.64 0 0.92-0.73 1.66-1.62 1.66-0.9 0-1.61-0.7-1.63-1.58-0.02-0.08-0.02-0.28-0.18-0.28-0.08 0-0.15 0.06-0.21 0.12-0.18 0.16-0.45 0.35-0.79 0.35q-0.24 0-0.53-0.1c-0.93-0.39-0.95-1.03-0.91-1.3 0.02-0.06 0.02-0.14-0.02-0.18z"/>
	<path class="s9" d="m593.8 141.58q-1.14-1.44-3.46-1.43-2.3-0.01-3.43 1.43-1.14 1.41-1.14 3.37c0 1.29 0.38 2.46 1.14 3.4q1.13 1.42 3.43 1.42 2.32 0 3.46-1.42 1.14-1.41 1.14-3.4c0-1.33-0.39-2.43-1.14-3.37zm-1.87 5.46q-0.55 0.74-1.59 0.74-1.04 0-1.58-0.74-0.55-0.73-0.55-2.09 0-1.35 0.55-2.09 0.54-0.73 1.58-0.73 1.02 0 1.59 0.73 0.55 0.74 0.55 2.09 0 1.36-0.55 2.09z"/>
	<path class="s9" d="m574.45 140.78q-1.15-0.6-2.64-0.6-2.28 0-3.21 1.19-0.59 0.78-0.67 1.97h2.27q0.09-0.53 0.35-0.84 0.35-0.41 1.18-0.41 0.75 0 1.14 0.2 0.41 0.21 0.41 0.78-0.01 0.45-0.51 0.66-0.29 0.14-0.96 0.22l-0.79 0.09q-1.39 0.18-2.08 0.59-1.3 0.74-1.3 2.41 0 1.3 0.81 1.99c0.53 0.47 1.21 0.68 2.02 0.7 5.14 0.24 5.08-2.72 5.12-3.34v-3.4q0-1.64-1.14-2.21zm-1.19 5.16q-0.03 1.19-0.68 1.62-0.65 0.44-1.42 0.45-0.49 0-0.82-0.27-0.34-0.26-0.34-0.88 0-0.68 0.55-1.01 0.33-0.18 1.07-0.32l0.56-0.08q0.38-0.09 0.63-0.17 0.22-0.1 0.45-0.24z"/>
	<path class="s9" d="m562.74 142.21q0.87 0 1.3 0.53 0.28 0.41 0.35 0.93h2.54q-0.21-1.93-1.35-2.71-1.13-0.76-2.9-0.76-2.1 0-3.28 1.29-1.2 1.29-1.2 3.63 0 2.05 1.08 3.36 1.08 1.29 3.36 1.29 2.28 0 3.45-1.56 0.71-0.96 0.82-2.05h-2.52q-0.08 0.72-0.45 1.17-0.37 0.45-1.24 0.45-1.22 0-1.67-1.12-0.25-0.62-0.24-1.6c0-0.66 0.07-1.25 0.24-1.68q0.47-1.17 1.71-1.17z"/>
	<path class="s9" d="m557.53 140.2c-5.21 0-4.9 4.65-4.9 4.65v4.71h2.36v-4.42q0-1.09 0.26-1.62 0.49-0.92 1.92-0.92 0.1 0 0.28 0.02 0.16 0 0.38 0.02v-2.42q-0.15 0.01-0.2-0.02-0.04 0-0.1 0z"/>
	<path class="s9" d="m550.73 141.96q-0.61-0.89-1.54-1.32-0.94-0.44-2.12-0.44-1.97 0-3.21 1.25-1.22 1.25-1.22 3.61 0 2.5 1.37 3.62 1.36 1.11 3.15 1.11 2.18 0 3.37-1.33 0.66-0.68 0.82-1.36h-2.51q-0.14 0.21-0.32 0.35c-0.33 0.29-0.78 0.37-1.3 0.37-0.51 0-0.92-0.08-1.26-0.3-0.6-0.37-0.94-0.99-0.96-1.89h6.53q0.02-1.17-0.08-1.8-0.16-1.06-0.72-1.87zm-5.67 2.11q0.12-0.87 0.61-1.39 0.51-0.53 1.4-0.53 0.84 0 1.41 0.49 0.55 0.49 0.61 1.43z"/>
	<path class="s9" d="m537.94 140.18c-1.1 0-2.03 0.48-2.68 1.25-0.61-0.77-1.53-1.25-2.69-1.25-2.3 0-3.78 1.71-3.78 3.96v5.42h2.15v-5.47c0-1 0.67-1.69 1.63-1.69 1.42 0 1.59 1.18 1.59 1.69v5.47h2.15v-5.47c0-1 0.67-1.69 1.63-1.69 1.42 0 1.59 1.18 1.59 1.69v5.47h2.15v-5.42c0-2.32-1.38-3.96-3.74-3.96z"/>
	<path class="s9" d="m582.69 139.02l-0.02 2.56q-0.38-0.66-1.01-1.01-0.64-0.37-1.45-0.37-1.77 0-2.82 1.34c-0.72 0.88-1.06 2.15-1.06 3.7q0 1.99 1.08 3.28c0.7 0.86 2.11 1.22 3.35 1.22 4.35 0 4.29-3.74 4.29-3.74v-8.64c0 0-2.36-0.27-2.36 1.66zm-0.47 8.04q-0.5 0.74-1.5 0.74-0.99 0-1.49-0.74c-0.32-0.51-0.49-1.22-0.49-2.07q0-1.16 0.47-1.94 0.49-0.78 1.53-0.78 0.67 0 1.18 0.43c0.55 0.47 0.84 1.34 0.84 2.44q0 1.19-0.54 1.92z"/>
	<path class="s9" d="m548.48 153.76c-1.93-0.1-2.93 0.37-3.56 0.86-0.89 0.68-1.43 1.7-1.43 3.3v8.25h1.15c0.3 0 0.6-0.1 0.83-0.31q0.38-0.35 0.38-0.85v-3.1q0.41 0.74 1.12 1.08 0.65 0.31 1.53 0.31 1.63 0 2.66-1.31 1.04-1.35 1.04-3.52c0-1.45-0.33-2.48-1.12-3.44-0.63-0.78-1.59-1.23-2.6-1.27zm0.81 6.78q-0.53 0.72-1.42 0.72-0.98 0-1.48-0.72-0.54-0.65-0.54-1.97 0-1.41 0.49-2.06 0.51-0.72 1.45-0.72c0.63 0 1.16 0.23 1.5 0.72q0.51 0.71 0.51 2.06 0 1.25-0.51 1.97z"/>
	<path class="s9" d="m568.76 154.62c-0.8-0.61-1.63-0.94-3.03-0.9-1.43 0.04-2.46 0.45-3.12 1.33q-0.97 1.31-0.97 3.46 0 1.83 0.73 2.95 0.73 1.11 1.75 1.51 1.04 0.42 2.08 0.19 1.03-0.25 1.64-1.21v0.58q-0.06 1.1-0.53 1.65-0.46 0.56-1.01 0.68-0.57 0.12-1.12-0.14-0.57-0.25-0.84-0.74h-2.5c0.65 1.94 1.81 2.81 3.89 2.97 3.37 0.24 4.43-2.62 4.43-4.18v-4.85c0-1.62-0.5-2.64-1.4-3.32zm-0.98 4.77q-0.14 0.82-0.45 1.19-0.65 0.9-2.01 0.65-1.36-0.26-1.36-2.64 0-1.1 0.4-1.96 0.41-0.87 1.57-0.87 0.86 0.01 1.3 0.62 0.45 0.61 0.57 1.42 0.1 0.79-0.02 1.59z"/>
	<path class="s9" d="m559.63 154.38q-1.16-0.6-2.65-0.6-2.28 0-3.21 1.21-0.59 0.76-0.66 1.94h2.27q0.07-0.53 0.34-0.84 0.35-0.4 1.18-0.4 0.75 0 1.16 0.2 0.39 0.23 0.39 0.78 0 0.45-0.51 0.67-0.28 0.13-0.94 0.21l-0.81 0.1q-1.39 0.17-2.08 0.57-1.3 0.76-1.3 2.42 0 1.29 0.82 1.99c0.53 0.47 1.19 0.67 2.03 0.71 5.13 0.23 5.06-2.72 5.11-3.33v-3.4q0.02-1.64-1.14-2.23zm-1.2 5.16q-0.03 1.19-0.67 1.63-0.66 0.46-1.43 0.46-0.47-0.03-0.81-0.29-0.35-0.27-0.35-0.86 0-0.7 0.55-1.01 0.35-0.2 1.1-0.32l0.53-0.11q0.4-0.08 0.63-0.16 0.22-0.08 0.45-0.22z"/>
	<path class="s9" d="m579.09 155.11q-1.14-1.43-3.45-1.43-2.3 0-3.44 1.43-1.14 1.44-1.14 3.4c0 1.29 0.38 2.46 1.14 3.4q1.14 1.39 3.44 1.39 2.31 0 3.45-1.39 1.14-1.41 1.14-3.4c0-1.33-0.39-2.44-1.14-3.4zm-1.87 5.49q-0.55 0.74-1.58 0.74-1.04 0-1.59-0.74-0.55-0.74-0.55-2.09 0-1.37 0.55-2.09 0.55-0.73 1.59-0.73 1.03 0 1.58 0.73 0.55 0.72 0.55 2.09 0 1.35-0.55 2.09z"/>
	<g id="Clip-Path" clip-path="url(#cp7)">
		<g>
			<path fill-rule="evenodd" class="s10" d="m21.33 97.94h95.69c3.64 0 6.7 3.08 6.7 6.74v61.59c0 3.66-3.06 6.74-6.7 6.74h-95.69c-3.63 0-6.69-3.08-6.69-6.74v-61.59c0-3.66 3.06-6.74 6.69-6.74z"/>
		</g>
	</g>
	<g id="Clip-Path" clip-path="url(#cp8)">
		<g>
			<path class="s11" d="m21.33 97.94h95.69c3.64 0 6.7 3.08 6.7 6.74v61.59c0 3.66-3.06 6.74-6.7 6.74h-95.69c-3.63 0-6.69-3.08-6.69-6.74v-61.59c0-3.66 3.06-6.74 6.69-6.74z"/>
		</g>
	</g>
	<path fill-rule="evenodd" class="s12" d="m97.5 144.52c0-0.77 0.58-1.35 1.34-1.35 0.77 0 1.34 0.58 1.34 1.35q0 0.39-0.38 0.77h-1.91q-0.39-0.38-0.39-0.77zm-11.1 5.97v-6.16h1.72v6.16c0 2.5-1.72 4.23-4.2 4.23-2.69 0-4.41-1.73-4.41-4.23v-6.16h1.92v6.16c0 0-0.2 2.5 2.49 2.5 2.67 0 2.48-2.5 2.48-2.5zm-30.81 3.85c-0.38 0.19-0.77 0.38-1.53 0.38-1.34 0-2.11-0.77-2.11-2.31v-4.04h-1.53v-1.54h1.53v-2.12l1.73-0.38v2.5h1.72v1.54h-1.72v3.85c0 0.58 0.19 0.96 0.76 0.96q0.39 0 0.77-0.19l0.19-0.19 0.38 1.54zm42.3 0.19v-7.7h1.72v7.7zm11.1-3.85c0 2.31-1.72 4.04-4.01 4.04-2.3 0-4.03-1.73-4.03-4.04 0-2.31 1.73-4.04 4.03-4.04 2.29 0 4.01 1.73 4.01 4.04zm-6.31 0c0 1.35 0.95 2.31 2.3 2.31 1.33 0 2.29-0.96 2.29-2.31 0-1.35-0.96-2.31-2.29-2.31-1.35 0-2.3 0.96-2.3 2.31zm-32.92-3.85v1.54c-0.19 0-0.58-0.19-0.77-0.19q-0.38 0-0.95 0.19c-0.39 0.19-0.57 0.58-0.77 0.96 0 0.13 0 5.07 0 5.2h-1.72v-7.7h1.72v0.39c0.38-0.39 0.96-0.39 1.53-0.58 0.38 0 0.96 0.19 0.96 0.19zm-38.09 4.82l2.11-7.51h1.72l-2.68 10.39h-1.91l-2.49-7.7-2.49 7.7h-1.72l-2.87-10.39h1.72l2.11 7.51 2.3-7.51h1.91zm7.46 3.07c-2.1 0-3.83-1.73-3.83-4.04q0-0.57 0.19-1.35 0.39-1.15 1.34-1.73c0.77-0.57 1.53-0.77 2.3-0.77q1.72 0 2.68 0.96 0.57 0.77 0.96 1.74c0.19 0.57 0.19 1.15 0.19 1.73h-5.93v0.19c0.19 0.96 1.15 1.73 2.1 1.73 1.15 0 1.72-0.58 2.1-0.77l1.16 0.96c-0.77 0.97-1.92 1.35-3.26 1.35zm0-6.35c-0.77 0-1.34 0.19-1.72 0.77-0.19 0.39-0.38 0.77-0.38 0.77h4.02c0-0.38-0.2-0.96-0.58-1.16-0.57-0.38-0.95-0.38-1.34-0.38zm21.24 6.35c-2.29 0-4.02-1.73-4.02-4.04q0.01-0.57 0.39-1.35 0.38-1.15 1.34-1.73c0.57-0.57 1.53-0.77 2.29-0.77q1.73 0 2.68 0.96 0.58 0.77 0.77 1.74c0.19 0.57 0.19 1.15 0.19 1.73h-5.93v0.19c0.38 0.96 1.14 1.73 2.29 1.73 0.96 0 1.54-0.58 1.92-0.77l1.15 0.96c-0.58 0.97-1.73 1.35-3.07 1.35zm-0.19-6.35c-0.57 0-1.14 0.19-1.53 0.77-0.38 0.39-0.57 0.77-0.57 0.77h4.21c-0.19-0.38-0.38-0.96-0.77-1.16-0.38-0.38-0.76-0.38-1.34-0.38zm-10.33 3.85c0.19 1.54-1.34 2.5-2.87 2.5-2.11 0-3.06-1.35-3.06-1.35l1.14-0.96c0.2 0.19 0.77 0.77 1.92 0.77 0.57 0 1.34-0.19 1.34-0.77 0-0.57-0.77-0.76-1.53-0.96q-0.39-0.19-0.77-0.19c-1.15-0.39-1.72-1.16-1.72-2.12 0-1.92 1.53-2.31 3.06-2.31h1.53v1.54c0 0-1.34 0-1.72 0-0.76 0-1.34 0.19-1.34 0.77 0 0.39 0.58 0.58 1.34 0.77 1.34 0.39 2.68 0.96 2.68 2.31zm41.53-4.81c0.57-0.58 1.34-0.58 1.91-0.58 1.92 0 3.06 1.15 3.06 3.08v4.81h-1.72v-4.62c0-0.96-0.57-1.73-1.53-1.73-1.15 0-1.72 0.96-1.72 1.54v4.81h-1.72v-7.89h1.72zm-13.4 2.7v4.62h-1.72v-4.62c0-0.97-0.77-1.55-1.72-1.55-0.96 0-1.53 0.77-1.53 1.55v4.62h-1.73v-7.7h1.73v0.38c0.57-0.38 1.33-0.58 1.91-0.58 1.72 0 3.06 1.35 3.06 3.28zm34.07-2.7c0.57-0.38 1.34-0.58 1.91-0.58 1.72 0 3.06 1.35 3.06 3.28v4.62h-1.72v-4.62c0-0.97-0.76-1.55-1.72-1.55-1.15 0-1.53 0.77-1.53 1.55v4.62h-1.91v-7.7h1.91z"/>
	<path fill-rule="evenodd" class="s12" d="m69.75 137.98l-4.4-14.25-4.4 14.25h-4.02l-5.94-21.37h4.6l3.45 13.47 4.2-13.47h4.22l4.21 13.67 3.44-13.67h4.59l-5.74 21.37zm23.16-21.37h4.59v13.09c0 2.5-0.76 4.81-2.48 6.35-1.53 1.54-3.83 2.5-6.51 2.5-2.68 0-4.78-0.96-6.51-2.5-1.53-1.54-2.29-3.85-2.29-6.35v-3.08l2.68-10.01h1.72c0 0 0 13.16 0 13.28 0 0 0 1.74 1.15 2.89q1.15 1.15 3.25 1.15 2.3 0 3.45-1.15c0.95-1.15 0.95-2.89 0.95-2.89q0.01-0.19 0-0.19z"/>
	<path fill-rule="evenodd" class="s0" d="m42.77 116.61l5.93 21.37h1.34l-5.74-21.37zm4.21 0l5.74 21.37h1.53l-5.93-21.37z"/>
	<g id="Clip-Path" clip-path="url(#cp9)">
		<g>
			<path fill-rule="evenodd" class="s0" d="m616.96 89.5h142.8v92.15h-142.8z"/>
			<path fill-rule="evenodd" class="s0" d="m616.96 89.5h142.8v92.15h-142.8z"/>
		</g>
	</g>
	<g id="Clip-Path" clip-path="url(#cp10)">
		<g>
			<g id="Clip-Path" clip-path="url(#cp11)">
				<g>
					<path class="s13" d="m628.86 97.18h118.9v76.79h-118.9z"/>
				</g>
			</g>
		</g>
	</g>
	<g id="Clip-Path" clip-path="url(#cp12)">
		<g>
			<path class="s13" d="m647.76 95.87h78.86v79.45h-78.86z"/>
		</g>
	</g>
	<path class="s0" d="m706.51 146.61q-4.23 0.33-8.45 0.72c-1.73 0.16-3.46 0.41-5.27 0.63 0.2-1.26 0.37-2.45 0.55-3.72l0.49 0.35c1.75 1.25 3.42 1.08 4.82-0.5 1.1-1.23 1.67-2.74 2.14-4.27 0.71-2.46 1.22-4.94 0.53-7.5-0.6-2.23-2.73-2.8-4.4-1.18-0.32 0.32-0.67 0.65-0.96 0.91-0.07-0.26-0.07-0.63-0.26-0.82q-0.12-0.14-0.28-0.22-0.17-0.1-0.35-0.15-0.18-0.05-0.37-0.05-0.18 0.01-0.36 0.05-0.19 0.07-0.35 0.17-0.16 0.1-0.28 0.23-0.13 0.14-0.2 0.3-0.11 0.19-0.13 0.37c-0.63 3.12-1.2 6.25-1.85 9.36-0.08 0.39-0.38 0.78-0.69 1.06-0.18 0.19-0.55 0.21-0.81 0.31-0.11-0.31-0.33-0.61-0.29-0.92q0.18-1.66 0.51-3.3c0.39-1.9 0.81-3.78 1.18-5.69q0.21-1.04-0.86-1.31c-1.03-0.25-1.22-0.16-1.87 1.02-1.79-1.06-3.07-0.88-4.53 0.64-1.26 1.31-2.01 2.88-2.61 4.57-0.81 2.29-1.24 4.64-0.67 7.08 0.25 1.09 0.82 1.89 1.93 2.21 1.21 0.35 2.2 0 3.01-0.86 0.37-0.41 0.65-0.86 1-1.33 0.25 0.86 0.75 1.54 1.63 1.47 0.77-0.04 1.52-0.4 2.3-0.65-0.12 0.65-0.33 1.33-0.39 2.03-0.06 0.61-0.34 0.8-0.91 0.88-3.16 0.47-6.31 1-9.44 1.49-1 0.17-1.99 0.35-3.11 0.56 0.44-1.64 0.87-3.14 1.28-4.63q1.69-6.1 3.35-12.21c0.29-1.06-0.16-1.49-1.22-1.23-1.24 0.31-2.03 1.11-2.46 2.34q-1.27 3.69-2.72 7.35c-0.29 0.67-0.88 1.27-1.43 1.78-0.26 0.25-0.89 0.37-1.16 0.21-0.26-0.14-0.45-0.74-0.4-1.13 0.06-0.74 0.26-1.47 0.46-2.19 0.39-1.5 0.88-2.99 1.22-4.49 0.23-1-0.56-1.78-1.7-1.84-0.74-0.02-0.96 0.33-1 1.5q-0.06 0.84-0.33 1.66c-0.24 0.81-0.63 1.59-0.83 2.41-0.41 1.54-0.83 3.09-1.08 4.69-0.18 1.15 0.06 2.31 1.16 3.01 1.1 0.68 2.18 0.39 3.15-0.33 0.55-0.41 1.06-0.88 1.67-1.41-0.59 1.76-1.1 3.44-1.69 5.1-0.08 0.25-0.38 0.43-0.65 0.57-1.38 0.78-2.87 1.39-4.17 2.3-2.97 2.01-5.04 4.71-5.78 8.31-0.34 1.6-0.04 3.03 1.26 4.08 1.37 1.08 2.85 0.9 4.3 0.18 1.42-0.67 2.42-1.85 3.35-3.05 1.9-2.5 2.99-5.37 3.95-8.32 0.19-0.55 0.45-0.84 1.02-0.96q4.88-0.99 9.76-1.98c1.06-0.23 2.16-0.37 3.3-0.56 0.02 0.39-0.04 0.68 0.04 0.88 0.18 0.39 0.4 0.95 0.73 1.07 0.32 0.1 0.9-0.12 1.18-0.41 0.33-0.31 0.55-0.82 0.65-1.29 0.12-0.49 0.37-0.68 0.82-0.74q4.45-0.57 8.88-1.17c1.75-0.22 3.52-0.43 5.25-0.75 0.9-0.16 1.2-0.95 0.84-1.81q-0.42-0.94-1.4-0.88zm-12.28-4.89c0.54-2.05 1.05-4.1 1.7-6.1 0.22-0.7 0.77-1.35 1.3-1.89 0.61-0.63 1.24-0.41 1.46 0.45q0.12 0.58 0.16 1.17c-0.09 2.11-0.65 3.87-1.46 5.57-0.47 0.99-1.2 1.76-2.44 1.66-0.51-0.04-0.88-0.27-0.72-0.86zm-6-6.27q-1.02 3.41-2.13 6.78-0.16 0.45-0.51 0.78c-0.53 0.57-1.32 0.51-1.65-0.2-0.26-0.58-0.34-1.21-0.47-1.66 0.31-2.28 0.76-4.26 2.35-5.74q0.62-0.57 1.42-0.86c0.63-0.24 1.2 0.25 0.99 0.9zm-20.07 27.16q-0.55 0.65-1.28 1.1c-0.29 0.16-0.86 0.29-1.04 0.11-0.27-0.21-0.43-0.74-0.35-1.07q0.29-1.19 0.86-2.23c1.28-2.25 3.11-3.87 5.66-5.04-1.03 2.7-2.12 5.1-3.85 7.13zm36.72-23.66c0.08-0.47 0.32-0.67 0.85-0.79q0.53-0.11 1.04-0.31 0.53-0.18 1-0.45 0.48-0.27 0.93-0.61 0.43-0.33 0.82-0.74 0.38-0.39 0.7-0.84 0.31-0.45 0.58-0.94 0.24-0.5 0.42-1.03 0.17-0.53 0.26-1.06c0.33-1.89-0.75-3.24-2.64-3.3q-0.36-0.04-0.73 0.02-0.34 0.06-0.69 0.18-0.37 0.13-0.68 0.31-0.3 0.21-0.58 0.45c-2.97 2.77-4.13 6.33-4.44 10.24 0.06 0.66 0.1 1.29 0.21 1.88 0.36 2.13 1.99 3.22 4.06 2.69 1.75-0.45 3.14-1.51 4.36-2.83 0.81-0.86 0.91-1.27 0.43-2.33-0.39-0.9-0.76-0.92-1.47-0.21q-1 1.01-2.15 1.82c-0.58 0.39-1.31 0.68-1.96 0.17-0.65-0.49-0.51-1.29-0.42-2.01 0.01-0.1 0.07-0.2 0.1-0.31zm2.5-6.75c0.26-0.41 0.79-0.8 1.22-0.45 0.26 0.22 0.32 0.92 0.18 1.31-0.51 1.39-1.64 2.09-2.97 2.5l-0.28-0.21c0.61-1.04 1.2-2.11 1.85-3.15z"/>
	<path class="s14" d="m689.8 104.2q-0.79 0-1.57 0.13-0.78 0.12-1.54 0.35-0.77 0.22-1.49 0.55-0.71 0.35-1.38 0.78-0.65 0.43-1.24 0.96-0.59 0.53-1.12 1.14-0.51 0.62-0.91 1.3-0.43 0.67-0.74 1.41-0.32 0.72-0.52 1.49-0.21 0.76-0.31 1.56-0.08 0.8-0.06 1.6 0.02 0.8 0.14 1.58 0.14 0.77 0.39 1.53 0.24 0.76 0.59 1.48 0.36 0.71 0.81 1.37 0.45 0.65 0.98 1.25l-0.25 4.62q-0.02 0.17 0.07 0.29 0.06 0.12 0.2 0.19 0.12 0.07 0.26 0.06 0.15 0 0.27-0.08l3.42-2.38q0.28 0.12 0.56 0.2 0.29 0.11 0.57 0.19 0.29 0.08 0.6 0.14 0.28 0.06 0.58 0.11 0.29 0.06 0.59 0.07 0.31 0.05 0.59 0.05 0.31 0.02 0.62 0.02 0.3 0 0.58-0.02 0.31-0.02 0.61-0.07 0.29-0.01 0.59-0.08 0.29-0.04 0.6-0.12 0.28-0.06 0.56-0.14 0.29-0.09 0.57-0.19 0.29-0.1 0.57-0.22 0.27-0.11 0.55-0.25 0.27-0.12 0.53-0.26 0.26-0.15 0.51-0.31 0.27-0.16 0.51-0.33 0.24-0.18 0.49-0.37 0.22-0.18 0.45-0.39 0.22-0.18 0.44-0.4 0.2-0.21 0.41-0.44 0.2-0.22 0.39-0.45 0.2-0.24 0.36-0.49 0.19-0.24 0.34-0.49 0.17-0.27 0.31-0.51 0.16-0.27 0.29-0.54 0.14-0.26 0.26-0.55 0.12-0.28 0.22-0.55 0.1-0.29 0.19-0.57 0.08-0.29 0.16-0.6 0.06-0.29 0.12-0.59 0.06-0.29 0.11-0.59 0.03-0.29 0.06-0.6 0.02-0.3 0.03-0.59 0.01-0.31-0.02-0.62 0-0.3-0.01-0.59-0.05-0.31-0.09-0.62-0.04-0.28-0.1-0.59-0.06-0.29-0.12-0.57-0.08-0.31-0.16-0.6-0.1-0.29-0.2-0.57-0.11-0.27-0.23-0.55-0.12-0.27-0.26-0.54-0.15-0.28-0.29-0.53-0.14-0.27-0.32-0.51-0.17-0.27-0.33-0.51-0.18-0.22-0.39-0.47-0.18-0.23-0.38-0.45-0.21-0.23-0.43-0.43-0.21-0.2-0.43-0.41-0.24-0.21-0.47-0.39-0.24-0.19-0.48-0.35-0.25-0.16-0.51-0.33-0.25-0.16-0.51-0.3-0.27-0.15-0.55-0.27-0.26-0.13-0.55-0.24-0.26-0.11-0.55-0.21-0.28-0.1-0.57-0.19-0.31-0.08-0.59-0.14-0.28-0.06-0.59-0.1-0.3-0.06-0.59-0.08-0.3-0.04-0.61-0.07-0.28-0.01-0.59-0.02zm0.79 15.34q-0.4 0.72-1.13 1.11-0.82 0.39-1.71 0.37-1.54 0-2.48-0.93-0.93-0.93-0.96-2.47-0.02-0.23 0.12-0.39 0.23-0.23 0.55-0.22 0.4 0 0.61 0.18 0.12 0.14 0.14 0.33 0.07 0.67 0.31 1.08 0.29 0.39 0.71 0.61 0.51 0.25 1.08 0.23 0.83 0 1.3-0.39 0.2-0.18 0.33-0.43 0.12-0.26 0.1-0.55 0.02-0.33-0.14-0.62-0.19-0.26-0.49-0.42-0.35-0.19-1.59-0.54-1.14-0.34-1.65-0.67-0.51-0.37-0.79-0.92-0.31-0.58-0.29-1.23c0-0.82 0.27-1.52 0.82-2.03q0.81-0.78 2.17-0.78 0.88-0.02 1.66 0.35 0.71 0.37 1.09 1.06 0.41 0.74 0.43 1.6 0 0.25-0.17 0.43-0.2 0.21-0.48 0.21-0.37 0.03-0.64-0.21-0.13-0.12-0.16-0.33-0.06-0.8-0.49-1.2-0.42-0.37-1.19-0.37c-0.54 0-0.96 0.1-1.22 0.32q-0.19 0.15-0.29 0.37-0.1 0.23-0.1 0.47 0 0.47 0.28 0.72c0.13 0.12 0.49 0.33 1.43 0.59 0.81 0.21 1.34 0.4 1.69 0.56q0.73 0.35 1.15 1.02 0.43 0.7 0.41 1.51 0.02 0.85-0.41 1.58zm6.47-7.06l-4.21 7.72q-0.06 0.14-0.18 0.22-0.12 0.11-0.26 0.15-0.14 0.04-0.29 0.02-0.16-0.02-0.28-0.11-0.15-0.06-0.23-0.18-0.1-0.12-0.14-0.26-0.04-0.15-0.04-0.29 0.02-0.15 0.1-0.29l4.21-7.72q0.06-0.12 0.19-0.22 0.12-0.1 0.26-0.15 0.14-0.04 0.3-0.02 0.14 0.02 0.29 0.08 0.12 0.09 0.23 0.21 0.07 0.12 0.14 0.27 0.03 0.14 0.02 0.28-0.03 0.17-0.09 0.29z"/>
	<g id="Clip-Path" clip-path="url(#cp13)">
		<g>
			<path fill-rule="evenodd" class="s15" d="m514.76 13.37h96.55c3.67 0 6.76 3.08 6.76 6.73v61.6c0 3.66-3.09 6.74-6.76 6.74h-96.55c-3.67 0-6.75-3.08-6.75-6.74v-61.6c0-3.65 3.08-6.73 6.75-6.73z"/>
		</g>
	</g>
	<g id="Clip-Path" clip-path="url(#cp14)">
		<g>
			<path class="s11" d="m514.76 13.37h96.55c3.67 0 6.76 3.08 6.76 6.73v61.6c0 3.66-3.09 6.74-6.76 6.74h-96.55c-3.67 0-6.75-3.08-6.75-6.74v-61.6c0-3.65 3.08-6.73 6.75-6.73z"/>
		</g>
	</g>
	<path fill-rule="evenodd" class="s0" d="m530.02 68.04v-15.78h17.95l1.94 2.3 1.93-2.3h65.46v14.62c0 0-1.74 1.16-3.67 1.16h-36.3l-2.13-2.5v2.5h-7.14v-4.24c0 0-0.97 0.58-3.09 0.58h-2.51v3.66h-10.81l-1.94-2.5-1.93 2.5zm-20.85-27.72l4.05-8.86h6.95l2.32 4.82v-4.82h8.69l1.35 3.47 1.36-3.47h39v1.74c0 0 2.13-1.74 5.41-1.74h12.74l2.32 4.82v-4.82h7.34l1.93 2.7v-2.7h7.34v15.79h-7.34l-1.93-2.89v2.89h-10.62l-1.16-2.51h-2.9l-0.96 2.51h-7.34c-2.9 0-4.83-1.73-4.83-1.73v1.73h-10.81l-2.32-2.51v2.51h-40.55l-1.16-2.51h-2.9l-0.96 2.51h-5.02zm3.47 5.01l0.97-2.31h5.98l0.97 2.31h3.67l-5.41-11.94h-4.25l-5.4 11.94zm2.12-5.01l1.74-4.04 1.74 4.04zm12.94 5.01v-8.67l3.48 8.67h2.7l3.48-8.67v8.67h3.08v-11.94h-5.02l-2.89 7.7-2.9-7.7h-5.02v11.94zm25.3 0v-2.5h-7.34v-2.12h7.14v-2.5h-7.14v-2.12h7.34v-2.7h-10.43v11.94zm5.02 0v-4.24h1.36l3.66 4.24h4.06l-4.25-4.43c1.74 0 3.47-1.54 3.47-3.66 0-2.5-2.12-3.85-4.43-3.85h-7.15v11.94zm5.21-7.9c0 0.78-0.77 1.16-1.54 1.16h-3.67v-2.5h3.67c0.96 0 1.54 0.57 1.54 1.34zm7.73-4.04h-3.28v11.94h3.28zm9.08 9.23h-0.97c-1.93 0-3.28-0.96-3.28-3.27 0-1.92 1.16-3.08 2.89-3.08h3.67v-2.88h-3.48c-4.24 0-6.37 2.5-6.37 5.96 0 3.47 2.13 5.97 5.41 5.97h0.77zm3.67 2.5l0.97-2.31h5.79l1.15 2.31h3.48l-5.4-11.93h-4.06l-5.6 11.93zm2.13-5.01l1.93-4.04 1.74 4.04zm12.94 5.01v-7.7l5.21 7.7h4.06v-11.93h-3.29v7.5l-5.21-7.5h-4.06v11.93zm-56 20.79v-2.51h-7.14v-2.11h7.14v-2.51h-7.14v-2.11h7.14v-2.7h-10.23v11.94zm50.79 0v-2.51h-7.15v-2.11h6.95v-2.51h-6.95v-2.11h7.15v-2.7h-10.43v11.94zm-46.34 0l2.89-3.66 2.9 3.66h4.05l-5.02-5.97 5.02-5.97h-3.86l-3.09 3.85-3.09-3.85h-3.86l5.02 6.16-5.02 5.78zm13.51 0v-3.66h3.48c2.71 0 4.83-1.54 4.83-4.24 0-2.3-1.55-4.04-4.44-4.04h-7.15v11.94zm5.22-7.9c0 0.97-0.77 1.55-1.55 1.55h-3.67v-2.89h3.67c0.78 0 1.55 0.58 1.55 1.34zm7.72 7.9v-4.24h1.35l3.86 4.24h3.87l-4.25-4.43c1.74 0 3.48-1.54 3.48-3.66 0-2.5-2.13-3.85-4.45-3.85h-6.95v11.94zm5.02-7.9c0 0.77-0.77 1.16-1.35 1.16h-3.67v-2.5h3.48c0.96 0 1.54 0.58 1.54 1.34zm23.17 7.9c2.91 0 4.06-1.74 4.06-3.85 0-1.93-1.15-3.28-3.86-3.28h-3.09c-0.77 0-1.16-0.57-1.16-1.15 0-0.38 0.39-0.96 1.35-0.96h5.41l1.35-2.7h-6.18c-3.67 0-5.02 1.93-5.02 3.85 0 2.12 1.35 3.47 3.86 3.47h2.9c0.97 0 1.35 0.58 1.35 0.96 0 0.58-0.38 1.15-1.35 1.15h-6.37v2.51zm11.2 0c2.71 0 4.05-1.74 4.05-3.85 0-1.93-1.15-3.28-3.86-3.28h-3.08c-0.78 0-1.17-0.57-1.17-1.15 0-0.38 0.39-0.96 1.36-0.96h5.41l1.34-2.7h-6.17c-3.87 0-5.02 1.93-5.02 3.85 0 2.12 1.35 3.47 3.86 3.47h2.9c0.96 0 1.35 0.58 1.35 0.96 0 0.58-0.39 1.15-1.35 1.15h-6.38v2.51z"/>
	<g id="Clip-Path" clip-path="url(#cp15)">
		<g>
			<path fill-rule="evenodd" class="s0" d="m633.75 13.37h96.55c3.67 0 6.76 3.08 6.76 6.73v61.6c0 3.66-3.09 6.74-6.76 6.74h-96.55c-3.67 0-6.76-3.08-6.76-6.74v-61.6c0-3.65 3.09-6.73 6.76-6.73z"/>
		</g>
	</g>
	<g id="Clip-Path" clip-path="url(#cp16)">
		<g>
			<path class="s11" d="m633.75 13.37h96.55c3.67 0 6.76 3.08 6.76 6.73v61.6c0 3.66-3.09 6.74-6.76 6.74h-96.55c-3.67 0-6.76-3.08-6.76-6.74v-61.6c0-3.65 3.09-6.73 6.76-6.73z"/>
		</g>
	</g>
	<path fill-rule="evenodd" class="s16" d="m643.02 58.99c0-1.54-0.77-1.35-1.55-1.35v-0.57q0.97 0.19 2.13 0.19 0.97-0.19 2.89-0.19c4.25 0 6.77 2.88 6.77 5.96 0 1.74-0.97 5.78-6.96 5.78q-1.35 0-2.51 0-1.15 0-2.32 0v-0.39c1.17-0.19 1.55-0.19 1.55-1.35zm1.74 7.89c0 1.35 0.96 1.55 1.73 1.55 3.68 0 4.83-2.7 4.83-5.2 0-3.27-1.92-5.59-5.21-5.59-0.77 0-1.16 0.2-1.35 0.2z"/>
	<path fill-rule="evenodd" class="s16" d="m653.83 68.42h0.2c0.58 0 0.77 0 0.77-0.58v-4.62c0-0.57-0.19-0.77-0.77-1.15v-0.19c0.77-0.19 1.74-0.58 1.74-0.58q0.19-0.19 0.38-0.19 0 0 0 0.38v6.35c0 0.58 0.39 0.58 0.97 0.58h0.19v0.39q-0.77 0-1.74 0-0.96 0-1.74 0zm1.74-9.82c-0.38 0-0.77-0.39-0.77-0.77 0-0.39 0.39-0.77 0.77-0.77 0.39 0 0.77 0.38 0.77 0.77 0 0.38-0.38 0.77-0.77 0.77z"/>
	<path fill-rule="evenodd" class="s16" d="m659.05 63.42c0-0.58-0.2-0.77-0.97-1.16v-0.19c0.58-0.38 1.35-0.58 2.13-0.96q0 0 0.19 0.19v1.15c0.96-0.76 1.74-1.34 2.9-1.34 1.35 0 1.93 1.15 1.93 2.5v4.23c0 0.58 0.38 0.58 0.77 0.58h0.39v0.39q-0.97 0-1.94 0-0.77 0-1.73 0v-0.39h0.38c0.39 0 0.78 0 0.78-0.58v-4.23c0-0.96-0.58-1.54-1.55-1.54-0.58 0-1.54 0.38-1.93 0.77v5c0 0.58 0.19 0.58 0.77 0.58h0.19v0.39q-0.77 0-1.73 0-0.78 0-1.74 0v-0.39h0.19c0.58 0 0.97 0 0.97-0.58z"/>
	<path fill-rule="evenodd" class="s16" d="m667.55 64.19c0 0.19 0 0.38 0 0.96 0.19 1.73 1.15 2.89 2.51 2.89q1.44 0 2.32-1.16l0.19 0.39c-0.78 0.96-1.74 1.92-3.1 1.92-2.7 0-3.28-2.69-3.28-3.65 0-3.47 2.32-4.43 3.48-4.43 1.35 0 2.9 0.96 2.9 2.69q0 0.19 0 0.39zm2.89-0.58c0.39 0 0.58-0.19 0.58-0.39 0-0.77-0.58-1.53-1.55-1.53-0.96 0-1.73 0.76-1.92 1.92z"/>
	<path fill-rule="evenodd" class="s16" d="m672.95 68.42h0.39c0.38 0 0.77 0 0.77-0.58v-4.62c0-0.57-0.58-0.77-0.77-0.77v-0.38c1.15-0.38 1.93-0.96 1.93-0.96q0.19 0 0.19 0.38v1.35c0.39-0.58 1.16-1.73 2.13-1.73 0.58 0 0.96 0.38 0.96 0.96 0 0.38-0.19 0.77-0.77 0.77-0.38 0-0.38-0.39-0.97-0.39-0.38 0-1.35 0.39-1.35 1.54v3.85c0 0.58 0.39 0.58 0.77 0.58h0.97v0.39c-0.97 0-1.54 0-2.31 0q-0.97 0-1.94 0z"/>
	<path fill-rule="evenodd" class="s16" d="m679.32 66.5c0.2 1.15 0.97 2.11 2.13 2.11 0.96 0 1.35-0.57 1.35-1.15 0-2.12-3.67-1.35-3.67-4.04 0-0.97 0.77-2.31 2.7-2.31 0.58 0 1.16 0.19 1.94 0.58v1.73h-0.39q-0.29-1.74-1.74-1.73c-0.77 0-1.35 0.38-1.35 1.15 0 1.93 3.86 1.35 3.86 4.04 0 0.96-0.77 2.31-2.89 2.31-0.58 0-1.36-0.38-1.94-0.58l-0.19-1.92z"/>
	<path fill-rule="evenodd" class="s16" d="m699.41 60.15h-0.39c-0.38-1.93-1.74-2.7-3.67-2.7-1.93 0-4.63 1.35-4.63 5.2 0 3.46 2.32 5.96 5.02 5.96 1.54 0 2.9-1.15 3.28-2.88h0.39l-0.39 2.5c-0.77 0.38-2.51 0.96-3.67 0.96-4.05 0-6.37-2.69-6.37-6.35 0-3.47 2.9-5.96 6.37-5.96 1.35 0 2.51 0.38 3.86 0.95z"/>
	<path fill-rule="evenodd" class="s16" d="m699.98 68.42h0.39c0.39 0 0.78 0 0.78-0.58v-9.24c0-1.15-0.2-1.15-0.97-1.34v-0.39c0.77-0.19 1.54-0.38 1.74-0.57q0.38-0.2 0.38-0.2 0.2 0 0.19 0.2v11.54c0 0.58 0.4 0.58 0.78 0.58h0.39v0.39q-0.97 0-1.74 0-0.97 0-1.94 0z"/>
	<path fill-rule="evenodd" class="s16" d="m710.8 67.84c0 0.39 0.19 0.39 0.58 0.39q0.2 0 0.58 0v0.38c-0.77 0-2.13 0.39-2.32 0.58l-0.19-0.19v-1.35c-0.97 0.96-1.74 1.54-2.9 1.54-0.96 0-1.93-0.58-1.93-2.12v-4.23c0-0.39 0-0.96-0.96-0.96v-0.39c0.57 0 1.93 0 2.12 0 0.19 0 0.19 0 0.19 0.39v4.43c0 0.38 0 1.92 1.55 1.92 0.58 0 1.35-0.39 1.93-0.96v-4.62c0-0.39-0.77-0.58-1.35-0.77v-0.19c1.54-0.2 2.51-0.2 2.51-0.2 0.19 0 0.19 0 0.19 0.2z"/>
	<path fill-rule="evenodd" class="s16" d="m714.28 62.45c0.57-0.57 1.54-1.34 2.51-1.34 1.93 0 3.09 1.73 3.09 3.66 0 2.11-1.74 4.42-4.06 4.42-1.35 0-1.93-0.58-2.31-0.58l-0.59 0.39-0.38-0.19q0.38-1.54 0.38-3.08v-7.13c0-1.15-0.38-1.15-0.96-1.34v-0.39c0.58-0.19 1.35-0.38 1.74-0.57q0.19-0.2 0.38-0.2 0.2 0 0.2 0.2zm0 4.62c0 0.57 0.57 1.54 1.74 1.54 1.73 0 2.51-1.74 2.51-3.08 0-1.93-1.36-3.46-2.71-3.46-0.58 0-1.16 0.38-1.54 0.76z"/>
	<path fill-rule="evenodd" class="s16" d="m650.55 77.08v-3.46c0-0.77-0.38-0.77-0.77-0.77h-0.19v-0.39q0.77 0 1.35 0 0.57 0 1.16 0v0.39h-0.2c-0.38 0-0.77 0-0.77 1.16v4.04q0 0.58 0 0.96h-0.39l-4.63-5.2v3.66c0 0.96 0.19 1.15 0.78 1.15h0.19v0.2q-0.59 0-1.16 0-0.58 0-1.35 0v-0.2h0.19c0.58 0 0.77-0.38 0.77-1.15v-3.85c0-0.58-0.38-0.77-0.77-0.77h-0.19v-0.39q0.58 0 1.15 0 0.39 0 0.77 0z"/>
	<path fill-rule="evenodd" class="s16" d="m647.08 79.01q-0.59 0-1.16-0.19-0.58 0.19-1.35 0.19v-0.39h0.19c0.58 0 0.77-0.38 0.77-1.15v-3.85c0-0.58-0.38-0.77-0.77-0.77h-0.19v-0.39q0.58 0 1.15 0 0.39 0 0.77 0-0.38 0.2-0.77 0.2-0.38 0-0.96-0.2v0.2c0.58 0 0.96 0.38 0.96 0.96v3.85c0 0.77-0.19 1.15-0.96 1.15v0.2q0.58 0 1.16 0 0.57 0 1.16 0zm3.47-1.93v-0.21l-4.06-4.41zm0-3.46c0-0.77-0.38-0.77-0.77-0.77h-0.19v-0.39q0.77 0 1.35 0 0.58 0 1.16 0-0.58 0.2-1.16 0.19-0.58 0.01-1.16-0.19v0.19h0.2c0.19 0 0.77 0.2 0.77 0.97v3.46l-0.2-0.21zm1.55-0.77h-0.2c-0.38 0-0.77 0-0.77 1.16 0-1.16 0.39-1.35 0.77-1.35h0.2zm-5.99 0.77l4.64 5.39-4.64-5.2z"/>
	<path fill-rule="evenodd" class="s16" d="m653.45 73.04c-0.77 0-0.77 0.19-0.97 0.77h-0.19q0-0.38 0.19-0.77 0-0.38 0-0.77h0.2c0 0.19 0.38 0.19 0.58 0.19h4.63c0.39 0 0.58 0 0.58-0.19h0.19q0 0.39-0.19 0.77 0 0.39 0 0.77h-0.19c0-0.38 0-0.77-0.77-0.77h-1.36v4.81c0 0.77 0.19 0.77 0.77 0.77h0.2v0.2c-0.39 0-1.16 0-1.55 0-0.58 0-1.16 0-1.54 0v-0.2h0.19c0.39 0 0.77 0 0.77-0.77v-4.81z"/>
	<path fill-rule="evenodd" class="s16" d="m657.12 79.01c-0.39 0-1.16-0.19-1.55-0.19-0.58 0-1.16 0.19-1.54 0.19v-0.39h0.19c0.39 0 0.58 0 0.58-0.77v-4.81h-1.35v-0.19h1.54v5c0 0.77-0.38 0.77-0.77 0.77h-0.19v0.2c0.38 0 0.96 0 1.54 0 0.39 0 0.97 0 1.35 0v-0.2c-0.58 0-0.96 0-0.96-0.77v-5h1.55c0.77 0 0.77 0.58 0.77 0.96h0.19q0-0.38 0-0.77 0-0.38 0.19-0.77h-0.19c0 0.19-0.39 0.19-0.58 0.19h-4.63c-0.39 0-0.58 0-0.58-0.19h-0.2q0 0.39 0 0.77 0 0.39-0.19 0.77h0.19c0.2-0.77 0.2-0.96 0.97-0.96v0.19c-0.77 0-0.77 0.19-0.77 0.77h-0.39q0-0.38 0-0.77 0.19-0.38 0.19-0.77h0.2c0 0.19 0.19 0.19 0.58 0.19h4.63c0.39 0 0.58 0 0.58-0.19h0.19q0 0.39 0 0.77 0 0.39 0 0.77h-0.38c0-0.38-0.2-0.77-0.77-0.77h-1.36v4.81c0 0.58 0.19 0.77 0.77 0.77h0.2z"/>
	<path fill-rule="evenodd" class="s16" d="m659.05 78.62c0.38 0 0.77 0 0.77-0.57v-4.82c0-0.38-0.39-0.38-0.77-0.38v-0.39c0.38 0 1.35 0 2.12 0 0.77 0 1.74 0 2.32 0 0 0.39 0 0.97 0.19 1.55h-0.38c0-0.58-0.2-1.16-1.16-1.16h-1.16v2.5h0.96c0.59 0 0.78-0.38 0.78-0.77h0.38q-0.19 0.39-0.19 0.97 0 0.57 0.19 1.15h-0.38c0-0.58 0-0.96-0.78-0.96h-0.96v2.11c0 0.58 0.58 0.58 1.16 0.58 0.96 0 1.54 0 1.74-0.96h0.38q-0.19 0.77-0.38 1.35c-0.58 0-1.74 0-2.52 0-0.77 0-1.93 0-2.31 0z"/>
	<path fill-rule="evenodd" class="s16" d="m663.88 79.01c-0.58 0-1.74-0.19-2.52-0.19-0.77 0-1.93 0.19-2.31 0.19h-0.2v-0.39h0.2c0.38 0 0.58 0 0.58-0.57v-4.82c0-0.38-0.2-0.38-0.58-0.38h-0.2v-0.39c0.39 0 1.55 0 2.32 0 0.77 0 1.74 0 2.32 0h0.19q0 0.2 0 0.58 0 0.39 0 0.97h-0.38c0-0.58-0.2-0.97-1.16-0.97h-1.16v-0.19h1.35c0.77 0 0.97 0.58 1.16 1.16l0.19-0.2q-0.19-0.38-0.19-0.77 0-0.38 0-0.58c-0.58 0-1.55 0.2-2.32 0.2-0.58 0-1.54-0.2-2.12-0.2v0.2c0.38 0 0.77 0.19 0.77 0.57v4.82c0 0.57-0.39 0.57-0.77 0.57v0.2c0.58 0 1.54 0 2.31 0 0.78 0 1.94 0 2.52 0q0.19-0.58 0.19-1.35c-0.39 0.96-0.97 1.15-1.93 1.15-0.58 0-1.16 0-1.16-0.77 0 0.58 0.38 0.58 1.16 0.58 0.96 0 1.54 0 1.74-1.15l0.38 0.19q-0.19 0.77-0.38 1.35zm-1.16-4.43v-0.19h0.38c0 0.25 0 0.77 0 1.15q0 0.58 0 1.16h-0.38c0-0.58 0-0.96-0.78-0.96h0.2c0.58 0 0.58 0.38 0.77 0.96l0.19-0.2q-0.19-0.38-0.19-0.96 0-0.38 0.19-0.96h-0.19c-0.19 0.39-0.38 0.77-0.77 0.77h-0.2c0.59 0 0.78-0.38 0.78-0.77z"/>
	<path fill-rule="evenodd" class="s16" d="m665.42 73.43c0-0.58-0.38-0.58-0.58-0.58h-0.19v-0.39c0.19 0 0.77 0 1.35 0 0.58 0 0.96 0 1.55 0 1.15 0 2.12 0.39 2.12 1.74 0 0.77-0.58 1.35-1.35 1.54l1.74 2.31c0.19 0.38 0.38 0.57 0.77 0.57v0.2q-0.39 0-0.97 0-0.38 0-0.77 0-0.96-1.35-1.93-2.89h-0.58v1.92c0 0.77 0.38 0.77 0.77 0.77h0.2v0.2q-0.78 0-1.55 0-0.77 0-1.35 0v-0.2h0.19c0.2 0 0.58-0.19 0.58-0.57zm1.16 2.12h0.38c0.97 0 1.55-0.2 1.55-1.35 0-0.77-0.58-1.35-1.35-1.35-0.39 0-0.39 0-0.58 0z"/>
	<path fill-rule="evenodd" class="s16" d="m670.83 79.01q-0.39 0-0.97-0.19-0.38 0.19-0.77 0.19-1.16-1.54-1.93-3.08h0.19q0.77 1.54 1.74 2.89 0.39 0 0.97 0 0.38 0 0.77 0zm-3.28 0q-0.78 0-1.55-0.2-0.77 0.2-1.35 0.2h-0.2v-0.39h0.2v0.19q0.58 0.01 1.35 0 0.77 0.01 1.55 0zm-2.71-6.16h-0.39v-0.38q0.07 0 0.2 0 0 0 0 0v0.19h0.19c0.2 0 0.58 0.19 0.58 0.77 0-0.58-0.38-0.58-0.58-0.58zm1.16-0.38c0.58 0 0.96 0 1.55 0 1.15 0 2.12 0.38 2.12 1.73 0 0.77-0.58 1.35-1.16 1.54l1.55 2.31c0.19 0.39 0.38 0.39 0.77 0.58-0.39 0-0.58-0.19-0.77-0.58l-1.74-2.31h0.19c0.58-0.38 1.16-0.77 1.16-1.54 0-1.35-0.97-1.54-2.12-1.73-0.59 0-0.97 0.19-1.55 0.19-0.58 0-0.96-0.19-1.35-0.19 0.32 0 0.9 0 1.35 0zm-1.16 6.16c0.2 0 0.58-0.19 0.58-0.58q0 0.58-0.58 0.58zm1.74-2.89v-0.19h0.58c0.77 0 1.35-0.38 1.35-1.35 0 1.16-0.58 1.54-1.55 1.54zm0.58-2.89q-0.09 0-0.19 0c0.97 0 1.55 0.58 1.55 1.35 0-0.77-0.58-1.35-1.36-1.35z"/>
	<path fill-rule="evenodd" class="s16" d="m677.01 77.08v-3.46c0-0.77-0.39-0.77-0.78-0.77h-0.19v-0.39q0.77 0 1.36 0 0.57 0 1.15 0v0.39h-0.19c-0.39 0-0.77 0-0.77 1.16v4.04q0 0.58 0 0.96h-0.39l-4.63-5.2v3.66c0 0.96 0.19 1.15 0.77 1.15h0.19v0.2q-0.58 0-1.15 0-0.59 0-1.17 0v-0.2c0.58 0 0.77-0.38 0.77-1.15v-3.85c0-0.58-0.38-0.77-0.77-0.77v-0.39q0.39 0 0.97 0 0.39 0 0.77 0z"/>
	<path fill-rule="evenodd" class="s16" d="m677.2 79.01l-4.63-5.2v-0.19l4.83 5.39zm-3.86-0.39h0.19c-0.77 0-0.96-0.19-0.96-1.15 0 0.96 0.19 1.15 0.77 1.15zm0.19 0.39q-0.58 0-1.16-0.19-0.58 0.19-1.16 0.19h-0.19v-0.39h0.19c0.58 0 0.77-0.38 0.77-1.15v-3.85c0-0.58-0.38-0.77-0.77-0.77h-0.19v-0.39c0.26 0 0.77 0 1.15 0q0.39 0 0.78 0-0.39 0.2-0.78 0.2-0.38 0-0.96-0.2v0.2c0.58 0 0.96 0.38 0.96 0.96v3.85c0 0.77-0.19 1.15-0.96 1.15v0.2q0.58 0 1.16 0 0.58 0 1.16 0zm3.47-1.93v-0.21l-4.05-4.41zm0-3.46c0-0.77-0.38-0.77-0.77-0.77h-0.19v-0.39q0.77 0 1.35 0 0.58 0 1.16 0-0.58 0.2-1.16 0.19-0.58 0.01-1.16-0.19v0.19h0.19c0.2 0 0.77 0.2 0.77 0.97v3.46l-0.19-0.21zm1.55-0.77h-0.19c-0.39 0-0.78 0-0.78 1.16 0-1.16 0.39-1.35 0.78-1.35h0.19z"/>
	<path fill-rule="evenodd" class="s16" d="m679.9 77.66c0 0.19-0.19 0.39-0.19 0.58 0 0.38 0.39 0.38 0.77 0.38v0.2q-0.39 0-0.96 0-0.58 0-0.97 0v-0.2q0.58 0.01 0.77-0.57l1.55-4.24c0-0.38 0.19-0.77 0.19-1.15 0.39 0 0.77-0.2 0.97-0.39q0.19 0.19 0.19 0.19l1.74 4.82q0 0.58 0.19 0.96 0.2 0.38 0.58 0.38h0.19v0.2q-0.57 0-1.35 0-0.58 0-1.35 0v-0.2h0.19c0.2 0 0.39 0 0.39-0.19q0-0.19 0-0.77l-0.39-0.96h-2.12zm1.36-4.04l-0.97 2.5h1.74z"/>
	<path fill-rule="evenodd" class="s16" d="m684.92 79.01q-0.57-0.19-1.35-0.19 0 0 0 0 0.78 0 1.35 0zm-1.35-0.2q-0.58 0-1.35 0.2v-0.2q0.77 0.01 1.35 0zm-0.77-0.38c0-0.19 0-0.39-0.19-0.77l-0.2-0.96h-2.12l-0.19 0.96c-0.2 0.19-0.2 0.58-0.2 0.58 0 0.19 0.2 0.38 0.58 0.38h0.2v0.39h-0.2q-0.39-0.2-0.96-0.2 0 0.01 0 0 0.57 0.01 0.96 0v-0.19c-0.19 0-0.77 0-0.77-0.38 0-0.2 0.19-0.39 0.19-0.58l0.39-1.16h2.12l0.39 1.16q0.19 0.38 0.19 0.77c0 0.19-0.38 0.19-0.58 0.19 0.2 0 0.39 0 0.39-0.19zm-3.28 0.38q-0.58 0-0.97 0.2h-0.19v-0.39h0.19q0.58 0 0.77-0.58l1.36-4.23c0.19-0.39 0.38-0.77 0.38-1.16 0.39 0 0.77-0.19 0.97-0.38q0 0 0.19 0 0 0.19 0 0.19 0 0-0.19-0.19c-0.2 0.19-0.58 0.38-0.77 0.38-0.2 0.39-0.2 0.77-0.39 1.16l-1.55 4.23c0 0.39-0.38 0.58-0.77 0.58v0.19q0.39 0.01 0.97 0zm4.63-0.57q0.2 0.38 0.77 0.38h-0.19q-0.38 0-0.58-0.38zm0 0q-0.19-0.39-0.19-0.97 0.19 0.58 0.19 0.97zm-3.67-2.12l0.78-2.7h0.19l0.77 2.7-0.77-2.5-0.77 2.5z"/>
	<path fill-rule="evenodd" class="s16" d="m685.31 73.04c-0.77 0-0.77 0.19-0.97 0.77h-0.19q0-0.38 0.19-0.77 0-0.38 0-0.77h0.2c0 0.19 0.19 0.19 0.58 0.19h4.63c0.39 0 0.58 0 0.58-0.19h0.2q-0.01 0.39-0.2 0.77 0 0.39 0 0.77h-0.19c0-0.38 0-0.77-0.78-0.77h-1.34v4.81c0 0.77 0.19 0.77 0.77 0.77v0.2c-0.2 0-0.97 0-1.36 0-0.58 0-1.15 0-1.54 0v-0.2h0.19c0.39 0 0.77 0 0.77-0.77v-4.81z"/>
	<path fill-rule="evenodd" class="s16" d="m688.79 79.01c-0.2 0-0.97-0.19-1.36-0.19-0.58 0-1.15 0.19-1.54 0.19v-0.39h0.19c0.39 0 0.58 0 0.58-0.77v-4.81h-1.35v-0.19h1.54v5c0 0.77-0.38 0.77-0.77 0.77h-0.19v0.2c0.39 0 0.96 0 1.54 0 0.39 0 0.97 0 1.36 0v-0.2c-0.58 0-0.97 0-0.97-0.77v-5h1.54c0.78 0 0.78 0.58 0.78 0.96h0.19q0-0.38 0-0.77 0-0.38 0.2-0.77h-0.2c0 0.19-0.39 0.19-0.58 0.19h-4.63c-0.39 0-0.58 0-0.58-0.19h-0.2q0 0.39 0 0.77-0.19 0.39-0.19 0.77h0.19c0.2-0.77 0.2-0.96 0.97-0.96v0.19c-0.77 0-0.77 0.19-0.77 0.77h-0.39q0-0.38 0-0.77 0.2-0.38 0.19-0.77h0.2c0 0.19 0.19 0.19 0.58 0.19h4.63c0.39 0 0.58 0 0.58-0.19h0.2q0 0.39 0 0.77 0 0.39 0 0.77h-0.39c0-0.38-0.2-0.77-0.78-0.77h-1.34v4.81c0 0.58 0.19 0.77 0.77 0.77h0.19v0.39z"/>
	<path fill-rule="evenodd" class="s16" d="m690.91 78.62c0.39 0 0.77 0 0.77-0.57v-4.82c0-0.38-0.38-0.38-0.77-0.38v-0.39c0.39 0 0.77 0 1.35 0 0.39 0 0.97 0 1.35 0v0.39c-0.38 0-0.77 0-0.77 0.38v4.82c0 0.57 0.39 0.57 0.77 0.57v0.2c-0.38 0-0.96 0-1.35 0-0.58 0-0.96 0-1.35 0z"/>
	<path fill-rule="evenodd" class="s16" d="m693.61 79.01c-0.38 0-0.96-0.19-1.35-0.19-0.58 0-0.96 0.19-1.35 0.19v-0.19c0.39 0 0.96 0 1.35 0 0.39 0 0.97 0 1.35 0zm-2.7-6.16v-0.2h0.19c0.2 0 0.58 0.2 0.58 0.58 0-0.38-0.38-0.38-0.77-0.38zm1.35-0.39c0.39 0 0.97 0 1.35 0-0.38 0-0.96 0.19-1.35 0.19-0.39 0-0.96-0.19-1.35-0.19 0.39 0 0.77 0 1.35 0zm1.35 0.39c-0.38 0-0.77 0-0.77 0.38 0-0.38 0.39-0.58 0.77-0.58zm-2.51 5.78h-0.19c0.39 0 0.77 0 0.77-0.58 0 0.58-0.38 0.58-0.58 0.58z"/>
	<path fill-rule="evenodd" class="s16" d="m697.28 72.46c1.93 0 3.48 1.16 3.48 3.09 0 2.11-1.55 3.46-3.48 3.46-1.93 0-3.28-1.35-3.28-3.27 0-1.93 1.35-3.28 3.28-3.28zm0.19 6.16c1.74 0 2.13-1.54 2.13-2.88 0-1.35-0.77-2.89-2.32-2.89-1.54 0-2.12 1.35-2.12 2.5 0 1.73 0.77 3.27 2.31 3.27z"/>
	<path fill-rule="evenodd" class="s16" d="m693.81 75.74c0-1.93 1.54-3.47 3.47-3.47v0.19c-1.93 0-3.28 1.35-3.28 3.28 0 1.92 1.35 3.27 3.28 3.27 1.93 0 3.48-1.35 3.48-3.46 0-1.93-1.55-3.09-3.48-3.09v-0.19c1.93 0 3.48 1.35 3.67 3.28-0.19 2.11-1.54 3.46-3.67 3.46-1.93 0-3.47-1.35-3.47-3.27zm1.35-0.39c0-1.15 0.58-2.69 2.12-2.69 1.55 0 2.32 1.73 2.32 3.08 0 1.34-0.39 2.88-2.13 2.88 1.74 0 1.94-1.54 1.94-2.88 0-1.35-0.58-2.89-2.13-2.89-1.54 0-2.12 1.35-2.12 2.5z"/>
	<path fill-rule="evenodd" class="s16" d="m706.94 77.08v-3.46c0-0.77-0.39-0.77-0.77-0.77h-0.2v-0.39q0.78 0 1.35 0 0.58 0 1.16 0v0.39h-0.19c-0.39 0-0.77 0-0.77 1.16v4.04q0 0.58 0 0.96h-0.39l-4.64-5.2v3.66c0 0.96 0.2 1.15 0.78 1.15h0.19v0.2q-0.58 0-1.16 0-0.57 0-1.35 0v-0.2h0.2c0.57 0 0.77-0.38 0.77-1.15v-3.85c0-0.58-0.39-0.77-0.77-0.77h-0.2v-0.39q0.58 0 1.16 0 0.39 0 0.78 0z"/>
	<path fill-rule="evenodd" class="s16" d="m703.46 79.01q-0.58 0-1.16-0.19-0.57 0.19-1.35 0.19v-0.39h0.2c0.57 0 0.77-0.38 0.77-1.15v-3.85c0-0.58-0.39-0.77-0.77-0.77h-0.2v-0.39q0.58 0 1.16 0 0.39 0 0.78 0-0.39 0.2-0.78 0.2-0.38 0-0.96-0.2v0.2c0.57 0 0.96 0.38 0.96 0.96v3.85c0 0.77-0.19 1.15-0.96 1.15v0.2q0.57 0 1.15 0 0.58 0 1.16 0zm3.48-1.93v-0.21l-4.05-4.41zm0-3.46c0-0.77-0.39-0.77-0.78-0.77h-0.19v-0.39q0.77 0 1.35 0 0.58 0 1.16 0-0.58 0.2-1.16 0.19-0.58 0.01-1.16-0.19v0.19c0.39 0 0.97 0.2 0.97 0.97v3.46l-0.19-0.21zm1.54-0.77h-0.19c-0.39 0-0.78 0-0.78 1.16 0-1.16 0.39-1.35 0.78-1.35h0.19zm-5.99 0.77l4.64 5.39-4.64-5.2z"/>
	<path fill-rule="evenodd" class="s16" d="m709.83 77.66c0 0.19-0.19 0.39-0.19 0.58 0 0.38 0.39 0.38 0.77 0.38v0.2q-0.57 0-0.96 0-0.58 0-0.97 0v-0.2q0.58 0.01 0.78-0.57l1.54-4.24c0-0.38 0.19-0.77 0.19-1.15 0.39 0 0.78-0.2 0.97-0.39q0.19 0.19 0.19 0.19l1.55 4.82q0.19 0.58 0.38 0.96 0.2 0.38 0.58 0.38h0.19v0.2q-0.77 0-1.34 0-0.58 0-1.36 0v-0.2c0.39 0 0.58 0 0.58-0.19q0-0.19-0.19-0.77l-0.2-0.96h-2.12zm1.35-4.04l-0.97 2.5h1.74z"/>
	<path fill-rule="evenodd" class="s16" d="m714.85 79.01q-0.77-0.19-1.34-0.19 0 0 0 0 0.77 0 1.34 0zm-1.34-0.2q-0.58 0-1.36 0.2v-0.2q0.78 0.01 1.36 0zm-0.78-0.38q0-0.19-0.19-0.77l-0.39-0.96h-1.93l-0.19 0.96c-0.2 0.19-0.39 0.58-0.39 0.58 0 0.19 0.39 0.38 0.77 0.38h0.2v0.39h-0.2q-0.57-0.2-0.96-0.2 0 0.01 0 0 0.58 0.01 0.96 0v-0.19c-0.19 0-0.77 0-0.77-0.38 0-0.2 0.19-0.39 0.19-0.58l0.39-1.16h2.12l0.39 1.16q0.19 0.38 0.19 0.77c0 0.19-0.38 0.19-0.58 0.19h-0.19c0.39 0 0.58 0 0.58-0.19zm-3.28 0.38q-0.58 0-0.97 0.2h-0.19v-0.39h0.19q0.58 0 0.78-0.58l1.35-4.23c0.19-0.39 0.38-0.77 0.38-1.16 0.39 0 0.78-0.19 0.97-0.38-0.19 0.19-0.58 0.38-0.77 0.38-0.2 0.39-0.2 0.77-0.39 1.16l-1.54 4.23c0 0.39-0.39 0.58-0.78 0.58v0.19q0.39 0.01 0.97 0zm4.44-1.54q0 0.58 0.19 0.97-0.19-0.39-0.38-0.97l-1.55-4.81zm0.19 0.96q0.2 0.39 0.77 0.39h-0.19q-0.38 0-0.58-0.39zm-3.67-2.11l0.78-2.7h0.19l0.77 2.7-0.77-2.51-0.77 2.51z"/>
	<path fill-rule="evenodd" class="s16" d="m717.17 78.05c0 0.38 0.19 0.38 0.39 0.38q0.58 0.2 1.35 0c0.39 0 0.58-0.19 0.77-0.38q0.2-0.38 0.39-0.77h0.19q-0.19 0.77-0.38 1.54-1.16 0-2.32 0-1.16 0-2.51 0v-0.2h0.19c0.39 0 0.78 0 0.78-0.57v-4.82c0-0.38-0.39-0.38-0.78-0.38h-0.19v-0.39q0.77 0 1.54 0 0.58 0 1.35 0v0.39h-0.19c-0.39 0-0.58 0-0.58 0.38z"/>
	<path fill-rule="evenodd" class="s16" d="m719.88 79.01q-1.16 0-2.32-0.19-1.16 0.19-2.51 0.19v-0.19q1.16 0 2.31 0 1.17 0 2.32 0 0.2-0.77 0.39-1.35h-0.1q0.05-0.1 0.1-0.19h0.19q-0.19 0.77-0.19 1.54v0.19zm-4.64-0.39c0.39 0 0.59 0 0.59-0.57 0 0.57-0.39 0.57-0.78 0.57zm0-5.77h-0.19v-0.19c0.26 0 0.52 0.08 0.66 0.26-0.1-0.07-0.25-0.07-0.47-0.07zm1.35-0.39q0.58 0 1.35 0v0.39h-0.19c-0.39 0-0.58 0-0.58 0.38v4.82c0 0.38 0.19 0.38 0.39 0.38q0.39 0 0.58 0 0.38 0 0.77 0 0.13 0 0.24-0.03-0.21 0.11-0.43 0.22-0.39 0-0.78 0-0.19 0-0.38 0c-0.39-0.19-0.58-0.19-0.58-0.57v-4.82q0-0.57 0.58-0.57h0.19v-0.2q-0.77 0.2-1.35 0.2-0.77 0-1.35-0.2 0.77 0 1.54 0zm3.09 5.59q0.15-0.29 0.29-0.58h-0.1q0.01 0.19-0.19 0.58-0.19 0.18-0.53 0.35c0.24-0.06 0.38-0.21 0.53-0.35zm-3.97-5.13q0.11 0.12 0.11 0.31 0-0.24-0.11-0.31z"/>
	<path fill-rule="evenodd" class="s17" d="m662.91 40.32c0-8.66 6.95-15.6 15.45-15.6 8.69 0 15.64 6.94 15.64 15.6 0 8.47-6.95 15.4-15.64 15.4-8.5 0-15.45-6.93-15.45-15.4z"/>
	<path fill-rule="evenodd" class="s18" d="m678.55 56.1c-9.08 0-16.22-7.31-16.22-15.98 0-9.62 7.14-16.16 16.22-16.16h4.06c8.88 0 16.8 6.54 16.8 16.16 0 8.67-7.92 15.98-16.8 15.98zm0-30.8c-8.11 0-14.68 6.55-14.68 14.63 0 8.09 6.57 14.63 14.68 14.63 8.11 0 14.87-6.54 14.87-14.63 0-8.08-6.76-14.63-14.87-14.63zm3.47 23.29v-17.32c3.48 1.35 5.99 4.81 5.99 8.66 0 4.04-2.51 7.32-5.99 8.66zm-12.74-8.66c0-3.85 2.51-7.31 5.99-8.66v17.32c-3.48-1.34-5.99-4.62-5.99-8.66z"/>
	<path fill-rule="evenodd" class="s16" d="m641.47 78.62h0.2c0.39 0 0.58 0 0.58-0.57v-4.82c0-0.38-0.19-0.38-0.58-0.38h-0.2v-0.39c0.39 0 0.97 0 1.36 0 0.58 0 0.96 0 1.54 0v0.39h-0.19c-0.39 0-0.58 0-0.58 0.38v4.82c0 0.57 0.19 0.57 0.58 0.57h0.19v0.2c-0.58 0-0.96 0-1.54 0-0.39 0-0.97 0-1.36 0z"/>
	<path fill-rule="evenodd" class="s16" d="m644.38 79.01c-0.59 0-0.97-0.19-1.55-0.19-0.39 0-0.97 0.19-1.36 0.19v-0.39h0.2c0.39 0 0.58 0 0.58-0.57v-4.82c0-0.38-0.19-0.38-0.58-0.38h-0.2v-0.39q0.09 0 0.2 0 0 0 0 0v0.2c0.39 0 0.77 0.19 0.77 0.57v4.82c0 0.57-0.38 0.57-0.77 0.57v0.2c0.19 0 0.77 0 1.16 0 0.58 0 0.96 0 1.55 0zm-1.55-6.55c0.58 0 0.96 0 1.55 0-0.4 0-0.97 0.19-1.55 0.19-0.39 0-0.97-0.19-1.16-0.19 0.37 0 0.83 0 1.16 0zm1.55 0.39h-0.2c-0.23 0-0.39 0-0.49 0.08 0.13-0.19 0.35-0.28 0.49-0.28h0.2zm-0.69 0.08q-0.09 0.08-0.09 0.31 0-0.18 0.09-0.31zm-0.09 5.12c0 0.58 0.19 0.58 0.58 0.58-0.2 0-0.58 0-0.58-0.58z"/>
	<path fill-rule="evenodd" class="s16" d="m720.26 72.27c0.39 0 0.97 0.39 0.97 0.96 0 0.58-0.58 0.97-0.97 0.97-0.58 0-0.96-0.39-0.96-0.97 0-0.57 0.38-0.96 0.96-0.96zm0 1.74c0.39 0 0.58-0.39 0.58-0.78 0-0.38-0.19-0.77-0.58-0.77q-0.38 0.01-0.56 0.2h-0.02v0.02c-0.14 0.14-0.19 0.35-0.19 0.55 0 0.21 0.05 0.41 0.19 0.56v0.02h0.02q0.18 0.19 0.56 0.2zm-0.56-0.2q-0.01-0.01-0.02-0.02v-0.17q0.2 0 0.2 0v-0.77q0-0.19-0.2 0v-0.17q0.01-0.01 0.02-0.02h0.56c0 0 0.15 0.15 0.19 0.32q-0.03-0.13-0.19-0.13h-0.19v0.38h0.19l0.19 0.2q0.2 0.19 0.2 0.19v0.19h-0.2c0 0-0.19-0.19-0.38-0.58v0.58zm0.74-0.83q0.01 0.03 0.01 0.06 0-0.03-0.01-0.06z"/>
	<path fill-rule="evenodd" class="s0" d="m31.79 13.54h95.69c3.64 0 6.7 3.08 6.7 6.74v61.59c0 3.67-3.06 6.74-6.7 6.74h-95.69c-3.63 0-6.7-3.07-6.7-6.74v-61.59c0-3.66 3.07-6.74 6.7-6.74z"/>
	<g id="Clip-Path" clip-path="url(#cp17)">
		<g>
			<path class="s11" d="m31.79 13.54h95.69c3.64 0 6.7 3.08 6.7 6.74v61.59c0 3.67-3.06 6.74-6.7 6.74h-95.69c-3.63 0-6.7-3.07-6.7-6.74v-61.59c0-3.66 3.07-6.74 6.7-6.74z"/>
		</g>
	</g>
	<path fill-rule="evenodd" class="s19" d="m74.66 51.66l0.57-3.27h-6.31l3.64-22.72q0-0.19 0.18-0.2 0.01-0.18 0.2-0.18h8.61q4.4 0 5.93 1.92 0.77 0.77 0.96 1.73 0.19 0.96 0 2.5v0.58l0.38 0.39q0.58 0.38 0.96 0.77 0.77 0.76 0.77 1.73 0.18 1.15 0 2.69-0.39 1.74-1.15 2.89-0.57 1.15-1.54 1.93-1.14 0.57-2.29 0.96-1.34 0.38-2.87 0.39h-0.77q-0.76 0-1.34 0.57-0.57 0.39-0.57 1.15v0.2l-0.96 5.58v0.19q-0.19 0.2-0.19 0.2z"/>
	<path fill-rule="evenodd" class="s20" d="m89.4 31.64q-0.19 0.19-0.2 0.38c-1.14 5.97-4.97 8.08-9.94 8.08h-2.69c-0.57 0-1.14 0.39-1.14 0.97l-1.73 10.78c0 0.38 0.2 0.77 0.77 0.77h4.4c0.57 0 0.96-0.58 1.15-0.96v-0.2l0.77-5.58 0.18-0.19c0-0.58 0.58-0.97 0.96-0.97h0.77c4.4 0 7.85-1.73 8.8-6.92 0.39-2.32 0.19-4.04-0.95-5.2q-0.58-0.58-1.15-0.96z"/>
	<path fill-rule="evenodd" class="s21" d="m88.06 31.06q-0.2 0-0.39-0.2-0.38 0-0.57 0-1.15-0.19-2.3-0.19h-6.89q-0.19 0-0.38 0c-0.38 0.19-0.57 0.58-0.57 0.97l-1.53 9.24v0.19c0-0.58 0.57-0.97 1.14-0.97h2.69c4.97 0 8.8-2.11 9.94-8.08q0.01-0.19 0.2-0.38-0.58-0.39-0.96-0.58-0.19 0-0.38 0z"/>
	<path fill-rule="evenodd" class="s19" d="m76.96 31.64c0-0.39 0.19-0.78 0.57-0.97q0.19 0 0.38 0h6.89q1.15 0 2.3 0.19 0.19 0 0.57 0 0.19 0.2 0.39 0.2 0.19 0 0.38 0 0.38 0.19 0.96 0.58c0.19-2.31 0-3.85-1.34-5.2-1.15-1.35-3.45-2.12-6.51-2.12h-8.61c-0.77 0-1.15 0.58-1.34 1.16l-3.64 23.1c0 0.38 0.38 0.76 0.77 0.76h5.36z"/>
	<path fill-rule="evenodd" class="s19" d="m53.8 59.55q1.15 1.35 0.77 4.04-0.96 5.97-7.09 6.16h-2.1c-0.39 0-0.77 0.19-0.77 0.58l-0.76 4.43c0 0.57-0.39 0.77-0.77 0.77h-3.06q-0.57 0-0.57-0.58l2.48-16.37c0.2-0.38 0.58-0.76 0.96-0.76h6.32q3.15 0 4.59 1.73zm-4.21 2.5c-0.57-0.58-1.53-0.58-2.68-0.58h-0.57c-0.19 0-0.39 0.2-0.39 0.39l-0.76 4.23h0.96c1.72 0 3.44 0 3.82-2.31q0.19-1.15-0.38-1.73z"/>
	<path fill-rule="evenodd" class="s19" d="m68.73 64.17l-1.53 10.59c-0.19 0.38-0.58 0.77-0.96 0.77h-2.68c-0.38 0-0.58-0.39-0.58-0.77l0.2-0.78c0 0-1.53 1.74-4.21 1.74-1.53 0-2.87-0.39-3.83-1.54-0.96-1.16-1.34-2.89-1.15-4.62 0.58-3.66 3.45-6.16 6.7-6.16 1.53 0 3.06 0.19 3.64 1.15l0.19 0.39 0.19-0.77q0-0.58 0.57-0.58h2.87c0.39 0 0.58 0.38 0.58 0.58zm-5.17 3.27q-0.76-0.77-2.11-0.77c-1.72 0-3.06 1.15-3.25 2.89-0.19 0.77 0 1.54 0.38 2.12q0.77 0.76 2.11 0.76c1.72 0 3.06-1.15 3.25-2.88 0.2-0.77 0-1.54-0.38-2.12z"/>
	<path fill-rule="evenodd" class="s19" d="m84.04 63.97h-2.87q-0.57 0.01-0.77 0.39l-4.21 6.16-1.72-5.97c-0.19-0.38-0.57-0.58-0.96-0.58h-2.87c-0.38 0-0.77 0.2-0.57 0.58l3.25 10.01-3.06 4.43c-0.19 0.38 0 0.77 0.38 0.77h3.06q0.58 0 0.77-0.39l10.14-14.63c0.19-0.38 0-0.77-0.57-0.77z"/>
	<path fill-rule="evenodd" class="s20" d="m98.96 59.55q1.15 1.35 0.77 4.04-0.96 5.97-7.27 6.16h-1.91c-0.58 0-0.77 0.19-0.96 0.58l-0.77 4.62q0 0.58-0.57 0.58h-3.26c-0.19 0-0.57-0.2-0.38-0.58l2.49-16.37c0-0.38 0.38-0.76 0.76-0.76h6.32c2.3 0 3.83 0.57 4.78 1.73zm-4.2 2.5c-0.58-0.58-1.73-0.58-2.87-0.58h-0.39c-0.19 0-0.57 0.2-0.57 0.39l-0.58 4.23h0.96c1.53 0 3.25 0 3.64-2.31q0.19-1.15-0.19-1.73z"/>
	<path fill-rule="evenodd" class="s20" d="m113.89 64.17l-1.72 10.59c0 0.38-0.38 0.77-0.76 0.77h-2.87c-0.2 0-0.58-0.39-0.39-0.77v-0.78c0 0-1.34 1.74-4.02 1.74-1.72 0-3.06-0.39-3.82-1.54-1.15-1.16-1.53-2.89-1.15-4.62 0.57-3.66 3.44-6.16 6.69-6.16 1.54 0 2.87 0.19 3.64 1.15l0.19 0.39v-0.77q0.29-0.58 0.58-0.58h3.06c0.38 0 0.57 0.38 0.57 0.58zm-5.35 3.27q-0.58-0.77-1.92-0.77c-1.72 0-3.25 1.15-3.44 2.89-0.2 0.77 0 1.54 0.38 2.12q0.76 0.76 2.1 0.76c1.73 0 3.06-1.15 3.45-2.88 0.19-0.77 0-1.54-0.57-2.12z"/>
	<path fill-rule="evenodd" class="s20" d="m116.57 58.39l-2.49 16.56c0 0.38 0.2 0.58 0.39 0.58h2.68c0.38 0 0.76-0.2 0.95-0.77l2.49-16.37c0-0.19-0.19-0.57-0.57-0.57h-2.87q-0.29 0-0.58 0.57z"/>
	<g id="Clip-Path" clip-path="url(#cp18)">
		<g>
			<path class="s22" d="m148.78 12.58h107.69c3.4 0 6.16 2.75 6.16 6.16v64.68c0 3.4-2.76 6.16-6.16 6.16h-107.69c-3.4 0-6.15-2.76-6.15-6.16v-64.68c0-3.41 2.75-6.16 6.15-6.16z"/>
		</g>
	</g>
	<path class="s0" d="m187.73 66.28l5.15-30.14h8.19l-5.14 30.14zm37.86-29.49c-1.61-0.62-4.17-1.26-7.35-1.26-8.11 0-13.82 4.07-13.88 9.94-0.04 4.33 4.1 6.75 7.2 8.2 3.2 1.48 4.27 2.41 4.25 3.72-0.02 2.04-2.54 2.96-4.91 2.96-3.28 0-5.03-0.46-7.72-1.59l-1.06-0.47-1.16 6.74c1.93 0.84 5.46 1.57 9.16 1.6 8.63 0 14.23-4.03 14.29-10.29 0.03-3.43-2.16-6.05-6.89-8.19-2.88-1.4-4.63-2.32-4.62-3.74 0-1.25 1.49-2.59 4.71-2.59 2.67-0.04 4.63 0.54 6.14 1.16l0.74 0.34zm21.12-0.65h-6.34c-1.96 0-3.43 0.54-4.29 2.5l-12.2 27.62h8.62c0 0 1.41-3.71 1.73-4.52 0.95 0 9.31 0.01 10.51 0.01 0.25 1.05 1 4.51 1 4.51h7.62zm-10.06 19.47c0.67-1.74 3.27-8.43 3.27-8.43-0.06 0.08 0.66-1.75 1.08-2.88l0.55 2.61c0 0 1.59 7.19 1.91 8.7zm-55.89-19.47l-8.03 20.56-0.86-4.17c-1.49-4.83-6.15-10.04-11.37-12.66l7.36 26.36h8.67l12.93-30.09z"/>
	<path class="s23" d="m165.23 36.14h-13.24l-0.1 0.62c10.29 2.49 17.1 8.53 19.94 15.77l-2.88-13.85c-0.49-1.91-1.94-2.48-3.72-2.54z"/>
	<g id="Clip-Path" clip-path="url(#cp19)">
		<g>
			<path class="s0" d="m396.15 13.43h95.69q0.66 0 1.31 0.13 0.65 0.13 1.26 0.38 0.61 0.25 1.15 0.62 0.55 0.37 1.02 0.83 0.47 0.47 0.83 1.02 0.37 0.55 0.62 1.16 0.25 0.61 0.38 1.25 0.13 0.65 0.13 1.31v61.24q0 0.66-0.13 1.31-0.13 0.64-0.38 1.25-0.25 0.61-0.62 1.16-0.36 0.55-0.83 1.02-0.47 0.46-1.02 0.83-0.54 0.36-1.15 0.62-0.61 0.25-1.26 0.38-0.65 0.13-1.31 0.13h-95.69q-0.66 0-1.31-0.13-0.64-0.13-1.25-0.38-0.61-0.26-1.16-0.62-0.54-0.37-1.01-0.83-0.47-0.47-0.84-1.02-0.36-0.55-0.62-1.16-0.25-0.61-0.38-1.25-0.12-0.65-0.13-1.31v-61.24q0.01-0.66 0.13-1.31 0.13-0.64 0.38-1.25 0.26-0.61 0.62-1.16 0.37-0.55 0.84-1.02 0.47-0.46 1.01-0.83 0.55-0.37 1.16-0.62 0.61-0.25 1.25-0.38 0.65-0.13 1.31-0.13z"/>
		</g>
	</g>
	<g id="Clip-Path" clip-path="url(#cp20)">
		<g>
			<path class="s11" d="m396.15 13.43h95.69q0.66 0 1.31 0.13 0.65 0.13 1.26 0.38 0.61 0.25 1.15 0.62 0.55 0.37 1.02 0.83 0.47 0.47 0.83 1.02 0.37 0.55 0.62 1.16 0.25 0.61 0.38 1.25 0.13 0.65 0.13 1.31v61.24q0 0.66-0.13 1.31-0.13 0.64-0.38 1.25-0.25 0.61-0.62 1.16-0.36 0.55-0.83 1.02-0.47 0.46-1.02 0.83-0.54 0.36-1.15 0.62-0.61 0.25-1.26 0.38-0.65 0.13-1.31 0.13h-95.69q-0.66 0-1.31-0.13-0.64-0.13-1.25-0.38-0.61-0.26-1.16-0.62-0.54-0.37-1.01-0.83-0.47-0.47-0.84-1.02-0.36-0.55-0.62-1.16-0.25-0.61-0.38-1.25-0.12-0.65-0.13-1.31v-61.24q0.01-0.66 0.13-1.31 0.13-0.64 0.38-1.25 0.26-0.61 0.62-1.16 0.37-0.55 0.84-1.02 0.47-0.46 1.01-0.83 0.55-0.37 1.16-0.62 0.61-0.25 1.25-0.38 0.65-0.13 1.31-0.13z"/>
		</g>
	</g>
	<path fill-rule="evenodd" class="s24" d="m433.46 43.05c1.33 0 2.45 0.28 3.81 0.97v3.65c-1.29-1.26-2.41-1.78-3.88-1.78-2.92 0-5.2 2.4-5.2 5.45 0 3.22 2.22 5.49 5.34 5.49 1.41 0 2.5-0.5 3.74-1.74v3.65c-1.41 0.66-2.55 0.93-3.88 0.93-4.73 0-8.4-3.63-8.4-8.3 0-4.63 3.77-8.32 8.47-8.32zm-16.43 4.46c0 0.85 0.55 1.31 2.41 2 3.53 1.29 4.58 2.43 4.58 4.96 0 3.08-2.27 5.22-5.49 5.22-2.36 0-4.08-0.93-5.5-3.03l2-1.93c0.71 1.38 1.9 2.12 3.38 2.12 1.39 0 2.41-0.95 2.41-2.24 0-0.67-0.31-1.24-0.93-1.65-0.31-0.19-0.93-0.47-2.15-0.9-2.91-1.05-3.91-2.17-3.91-4.36 0-2.6 2.15-4.55 4.97-4.55 1.74 0 3.34 0.59 4.67 1.76l-1.63 2.12c-0.8-0.9-1.57-1.29-2.5-1.29-1.33 0-2.31 0.77-2.31 1.77zm-8.27-4.1h3.09v15.9h-3.09zm-1.43 7.96c0 2.34-1.07 4.6-2.89 6.1-1.52 1.27-3.26 1.84-5.67 1.84h-4.53v-15.9h4.55c5.03 0 8.54 3.27 8.54 7.96zm-3.2-0.03c0-1.52-0.64-3-1.71-3.95-1.03-0.93-2.24-1.29-4.25-1.29h-0.83v10.52h0.83c2.01 0 3.27-0.39 4.25-1.27 1.07-0.95 1.71-2.48 1.71-4.01zm53.5-7.93l4.23 10.68 4.3-10.68h3.36l-6.87 16.3h-1.67l-6.75-16.3zm13.3 0h8.8v2.69h-5.69v3.53h5.48v2.69h-5.48v4.3h5.69v2.69h-8.8zm15.45 0c3.58 0 5.63 1.72 5.63 4.69 0 2.44-1.29 4.04-3.62 4.51l5 6.7h-3.81l-4.29-6.39h-0.41v6.39h-3.09v-15.9zm-1.51 7.32h0.91c1.98 0 3.03-0.86 3.03-2.46 0-1.55-1.05-2.36-2.98-2.36h-0.96z"/>
	<g id="Clip-Path" clip-path="url(#cp21)">
		<g>
			<g id="Clip-Path" clip-path="url(#cp22)">
				<g>
					<path class="s25" d="m437.1 41.77v19.28h19.29v-19.28z"/>
				</g>
			</g>
		</g>
	</g>
	<g id="Clip-Path" clip-path="url(#cp23)">
		<g>
			<path class="s0" d="m277.29 13.46h96.55q0.67 0 1.32 0.13 0.65 0.13 1.27 0.38 0.61 0.26 1.16 0.63 0.56 0.37 1.03 0.84 0.47 0.47 0.84 1.02 0.37 0.56 0.62 1.17 0.26 0.62 0.39 1.27 0.13 0.65 0.13 1.32v61.79q0 0.67-0.13 1.32-0.13 0.65-0.39 1.27-0.25 0.61-0.62 1.17-0.37 0.55-0.84 1.02-0.47 0.47-1.03 0.84-0.55 0.38-1.16 0.63-0.62 0.25-1.27 0.38-0.65 0.13-1.32 0.13h-96.55q-0.67 0-1.32-0.13-0.65-0.13-1.27-0.38-0.61-0.25-1.17-0.63-0.55-0.37-1.02-0.84-0.47-0.47-0.84-1.02-0.37-0.56-0.63-1.17-0.25-0.62-0.38-1.27-0.13-0.65-0.13-1.32v-61.79q0-0.67 0.13-1.32 0.13-0.65 0.38-1.27 0.26-0.61 0.63-1.17 0.37-0.55 0.84-1.02 0.47-0.47 1.02-0.84 0.56-0.37 1.17-0.63 0.62-0.25 1.27-0.38 0.65-0.13 1.32-0.13z"/>
		</g>
	</g>
	<g id="Clip-Path" clip-path="url(#cp24)">
		<g>
			<path class="s11" d="m277.29 13.46h96.55q0.67 0 1.32 0.13 0.65 0.13 1.27 0.38 0.61 0.26 1.16 0.63 0.56 0.37 1.03 0.84 0.47 0.47 0.84 1.02 0.37 0.56 0.62 1.17 0.26 0.62 0.39 1.27 0.13 0.65 0.13 1.32v61.79q0 0.67-0.13 1.32-0.13 0.65-0.39 1.27-0.25 0.61-0.62 1.17-0.37 0.55-0.84 1.02-0.47 0.47-1.03 0.84-0.55 0.38-1.16 0.63-0.62 0.25-1.27 0.38-0.65 0.13-1.32 0.13h-96.55q-0.67 0-1.32-0.13-0.65-0.13-1.27-0.38-0.61-0.25-1.17-0.63-0.55-0.37-1.02-0.84-0.47-0.47-0.84-1.02-0.37-0.56-0.63-1.17-0.25-0.62-0.38-1.27-0.13-0.65-0.13-1.32v-61.79q0-0.67 0.13-1.32 0.13-0.65 0.38-1.27 0.26-0.61 0.63-1.17 0.37-0.55 0.84-1.02 0.47-0.47 1.02-0.84 0.56-0.37 1.17-0.63 0.62-0.25 1.27-0.38 0.65-0.13 1.32-0.13z"/>
		</g>
	</g>
	<path fill-rule="evenodd" class="s26" d="m310.59 72.15v5.7h-1.25v-0.69c-0.39 0.51-0.99 0.83-1.81 0.83-1.61 0-2.87-1.25-2.87-3 0-1.73 1.26-2.99 2.87-2.99 0.82 0 1.42 0.32 1.81 0.84v-0.69zm-2.9 1.02c-1.09 0-1.75 0.82-1.75 1.82 0 1.01 0.66 1.83 1.75 1.83 1.03 0 1.73-0.78 1.73-1.83 0-1.03-0.7-1.82-1.73-1.82zm49.8-3.32v8h-1.25v-0.69c-0.4 0.51-1 0.83-1.82 0.83-1.61 0-2.87-1.25-2.87-3 0-1.73 1.26-2.99 2.87-2.99 0.82 0 1.42 0.32 1.82 0.84v-2.99zm-2.91 6.97c1.03 0 1.73-0.78 1.73-1.83 0-1.03-0.7-1.82-1.73-1.82-1.09 0-1.75 0.82-1.75 1.82 0 1.01 0.66 1.83 1.75 1.83zm-31.31-1.83c0-1.77 1.18-2.99 2.87-2.99 1.6 0 2.71 1.22 2.72 2.99q0 0.25-0.02 0.48h-4.27c0.19 1.03 0.91 1.4 1.72 1.4 0.58 0 1.19-0.21 1.67-0.59l0.62 0.91c-0.7 0.59-1.49 0.8-2.36 0.8-1.72 0-2.95-1.18-2.95-3zm1.31-0.5h2.99c-0.14-0.88-0.65-1.38-1.46-1.38-0.89 0-1.39 0.56-1.53 1.38zm21.31-2.34v5.7h-1.25v-0.69c-0.41 0.51-1 0.83-1.82 0.83-1.62 0-2.88-1.25-2.88-3 0-1.73 1.26-2.99 2.88-2.99 0.82 0 1.41 0.32 1.82 0.84v-0.69zm-2.92 4.67c1.04 0 1.73-0.78 1.73-1.83 0-1.03-0.69-1.82-1.73-1.82-1.08 0-1.74 0.82-1.74 1.82 0 1.01 0.66 1.83 1.74 1.83zm-5.73-4.82c0.86 0 1.44 0.19 2.07 0.68l-0.61 1q-0.69-0.5-1.5-0.51c-1 0.01-1.73 0.73-1.73 1.82 0 1.1 0.73 1.82 1.73 1.83q0.81 0 1.5-0.51l0.61 1c-0.63 0.49-1.21 0.68-2.07 0.68-1.85 0-3.07-1.26-3.07-3 0-1.72 1.22-2.99 3.07-2.99zm11.53 0.84c0.32-0.5 0.79-0.84 1.52-0.84 0.25 0 0.61 0.05 0.89 0.16l-0.39 1.17q-0.4-0.16-0.78-0.15c-0.82 0-1.23 0.53-1.23 1.47v3.2h-1.25v-5.7h1.24zm-32.53 0.76c-0.35-0.22-1.06-0.49-1.8-0.49-0.68 0-1.09 0.25-1.09 0.67 0 0.38 0.44 0.49 0.97 0.56l0.6 0.08c1.25 0.18 2 0.71 2 1.71 0 1.09-0.96 1.86-2.62 1.86-0.94 0-1.81-0.24-2.49-0.74l0.59-0.97c0.42 0.33 1.05 0.6 1.91 0.6 0.86 0 1.32-0.25 1.32-0.69 0-0.32-0.33-0.51-1.02-0.6l-0.58-0.08c-1.29-0.18-1.99-0.75-1.99-1.68 0-1.14 0.94-1.83 2.39-1.83 0.92 0 1.75 0.2 2.35 0.6zm15.15-0.76c0.32-0.5 0.79-0.84 1.51-0.84 0.26 0 0.62 0.05 0.89 0.15l-0.38 1.18q-0.4-0.16-0.78-0.15c-0.82 0-1.23 0.53-1.23 1.47v3.2h-1.25v-5.71h1.24zm-9.15 0.45h-2.05v2.57c0 0.57 0.21 0.96 0.83 0.96 0.33 0 0.73-0.11 1.11-0.33l0.36 1.07c-0.4 0.27-1.02 0.44-1.57 0.44-1.48 0-1.99-0.79-1.99-2.12v-2.59h-1.17v-1.14h1.17v-1.73h1.26v1.73h2.05zm-18.7 0.99v3.58h-1.26v-3.17c0-0.97-0.41-1.51-1.26-1.51-0.83 0-1.41 0.53-1.41 1.52v3.16h-1.26v-3.17c0-0.97-0.42-1.51-1.25-1.51-0.85 0-1.41 0.53-1.41 1.52v3.16h-1.26v-5.7h1.25v0.7c0.47-0.67 1.07-0.85 1.68-0.85 0.88 0 1.51 0.38 1.9 1.01 0.53-0.79 1.29-1.02 2.02-1.01 1.4 0.01 2.26 0.92 2.26 2.27z"/>
	<path class="s27" d="m316.36 28.67h18.95v33.78h-18.95z"/>
	<path class="s28" d="m317.57 45.56c0-6.85 3.23-12.95 8.26-16.89-3.68-2.87-8.32-4.59-13.38-4.59-11.95 0-21.64 9.62-21.64 21.48 0 11.87 9.69 21.49 21.64 21.49 5.06 0 9.7-1.72 13.38-4.6-5.03-3.93-8.26-10.03-8.26-16.89z"/>
	<path class="s29" d="m360.86 45.56c0 11.87-9.69 21.49-21.64 21.49-5.05 0-9.7-1.72-13.39-4.6 5.04-3.93 8.27-10.03 8.27-16.89 0-6.85-3.23-12.95-8.27-16.89 3.69-2.87 8.34-4.59 13.39-4.59 11.95 0 21.64 9.62 21.64 21.48z"/>
</svg>